<svg xmlns="http://www.w3.org/2000/svg" xmlns:xlink="http://www.w3.org/1999/xlink" width="500" zoomAndPan="magnify" viewBox="0 0 375 374.999991" height="500" preserveAspectRatio="xMidYMid meet" version="1.0"><defs><g/><clipPath id="a4d06454fb"><path d="M 82.335938 37.5 L 292.335938 37.5 L 292.335938 247.5 L 82.335938 247.5 Z M 82.335938 37.5 " clip-rule="nonzero"/></clipPath></defs><path fill="#081f5c" d="M 375 187.5 C 375 190.570312 374.925781 193.636719 374.773438 196.699219 C 374.625 199.765625 374.398438 202.824219 374.097656 205.878906 C 373.796875 208.933594 373.421875 211.976562 372.96875 215.011719 C 372.519531 218.046875 371.996094 221.070312 371.398438 224.078125 C 370.796875 227.089844 370.125 230.082031 369.378906 233.058594 C 368.636719 236.035156 367.816406 238.992188 366.925781 241.929688 C 366.035156 244.863281 365.074219 247.777344 364.039062 250.667969 C 363.003906 253.554688 361.902344 256.417969 360.726562 259.253906 C 359.554688 262.089844 358.308594 264.890625 356.996094 267.667969 C 355.6875 270.441406 354.304688 273.179688 352.859375 275.886719 C 351.414062 278.59375 349.902344 281.261719 348.324219 283.894531 C 346.746094 286.527344 345.105469 289.117188 343.402344 291.667969 C 341.695312 294.222656 339.929688 296.730469 338.101562 299.195312 C 336.273438 301.660156 334.386719 304.078125 332.4375 306.449219 C 330.492188 308.820312 328.488281 311.144531 326.429688 313.417969 C 324.367188 315.691406 322.253906 317.914062 320.082031 320.082031 C 317.914062 322.253906 315.691406 324.367188 313.417969 326.429688 C 311.144531 328.488281 308.820312 330.492188 306.449219 332.4375 C 304.078125 334.386719 301.660156 336.273438 299.195312 338.101562 C 296.730469 339.929688 294.222656 341.695312 291.667969 343.402344 C 289.117188 345.105469 286.527344 346.746094 283.894531 348.324219 C 281.261719 349.902344 278.59375 351.414062 275.886719 352.859375 C 273.179688 354.308594 270.441406 355.6875 267.667969 356.996094 C 264.890625 358.308594 262.089844 359.554688 259.253906 360.726562 C 256.417969 361.902344 253.554688 363.003906 250.667969 364.039062 C 247.777344 365.074219 244.863281 366.035156 241.929688 366.925781 C 238.992188 367.816406 236.035156 368.636719 233.058594 369.378906 C 230.082031 370.125 227.089844 370.796875 224.078125 371.398438 C 221.070312 371.996094 218.046875 372.519531 215.011719 372.96875 C 211.976562 373.421875 208.933594 373.796875 205.878906 374.097656 C 202.824219 374.398438 199.765625 374.625 196.699219 374.773438 C 193.636719 374.925781 190.570312 375 187.5 375 C 184.429688 375 181.363281 374.925781 178.300781 374.773438 C 175.234375 374.625 172.175781 374.398438 169.121094 374.097656 C 166.066406 373.796875 163.023438 373.421875 159.988281 372.96875 C 156.953125 372.519531 153.929688 371.996094 150.921875 371.398438 C 147.910156 370.796875 144.917969 370.125 141.941406 369.378906 C 138.964844 368.636719 136.007812 367.816406 133.070312 366.925781 C 130.136719 366.035156 127.222656 365.074219 124.332031 364.039062 C 121.445312 363.003906 118.582031 361.902344 115.746094 360.726562 C 112.910156 359.554688 110.105469 358.308594 107.332031 356.996094 C 104.558594 355.6875 101.820312 354.308594 99.113281 352.859375 C 96.40625 351.414062 93.738281 349.902344 91.105469 348.324219 C 88.472656 346.746094 85.882812 345.105469 83.332031 343.402344 C 80.777344 341.695312 78.269531 339.929688 75.804688 338.101562 C 73.339844 336.273438 70.921875 334.386719 68.550781 332.4375 C 66.179688 330.492188 63.855469 328.488281 61.582031 326.429688 C 59.308594 324.367188 57.085938 322.253906 54.917969 320.082031 C 52.746094 317.914062 50.632812 315.691406 48.570312 313.417969 C 46.511719 311.144531 44.507812 308.820312 42.558594 306.449219 C 40.613281 304.078125 38.726562 301.660156 36.898438 299.195312 C 35.070312 296.730469 33.304688 294.222656 31.597656 291.667969 C 29.894531 289.117188 28.253906 286.527344 26.675781 283.894531 C 25.097656 281.261719 23.585938 278.59375 22.140625 275.886719 C 20.691406 273.179688 19.3125 270.441406 18.003906 267.667969 C 16.691406 264.890625 15.445312 262.089844 14.273438 259.253906 C 13.097656 256.417969 11.996094 253.554688 10.960938 250.667969 C 9.925781 247.777344 8.964844 244.863281 8.074219 241.929688 C 7.183594 238.992188 6.363281 236.035156 5.617188 233.058594 C 4.875 230.082031 4.203125 227.089844 3.601562 224.078125 C 3.003906 221.070312 2.480469 218.046875 2.03125 215.011719 C 1.578125 211.976562 1.203125 208.933594 0.902344 205.878906 C 0.601562 202.824219 0.375 199.765625 0.226562 196.699219 C 0.0742188 193.636719 0 190.570312 0 187.5 C 0 184.429688 0.0742188 181.363281 0.226562 178.300781 C 0.375 175.234375 0.601562 172.175781 0.902344 169.121094 C 1.203125 166.066406 1.578125 163.023438 2.03125 159.988281 C 2.480469 156.953125 3.003906 153.929688 3.601562 150.921875 C 4.203125 147.910156 4.875 144.917969 5.617188 141.941406 C 6.363281 138.964844 7.183594 136.007812 8.074219 133.070312 C 8.964844 130.136719 9.925781 127.222656 10.960938 124.332031 C 11.996094 121.445312 13.097656 118.582031 14.273438 115.746094 C 15.445312 112.910156 16.691406 110.105469 18.003906 107.332031 C 19.3125 104.558594 20.691406 101.820312 22.140625 99.113281 C 23.585938 96.40625 25.097656 93.738281 26.675781 91.105469 C 28.253906 88.472656 29.894531 85.882812 31.597656 83.332031 C 33.304688 80.777344 35.070312 78.269531 36.898438 75.804688 C 38.726562 73.339844 40.613281 70.921875 42.558594 68.550781 C 44.507812 66.179688 46.511719 63.855469 48.570312 61.582031 C 50.632812 59.308594 52.746094 57.085938 54.917969 54.917969 C 57.085938 52.746094 59.308594 50.632812 61.582031 48.570312 C 63.855469 46.511719 66.179688 44.507812 68.550781 42.558594 C 70.921875 40.613281 73.339844 38.726562 75.804688 36.898438 C 78.269531 35.070312 80.777344 33.304688 83.332031 31.597656 C 85.882812 29.894531 88.472656 28.253906 91.105469 26.675781 C 93.738281 25.097656 96.40625 23.585938 99.113281 22.140625 C 101.820312 20.691406 104.558594 19.3125 107.332031 18.003906 C 110.105469 16.691406 112.910156 15.445312 115.746094 14.273438 C 118.582031 13.097656 121.445312 11.996094 124.332031 10.960938 C 127.222656 9.925781 130.136719 8.964844 133.070312 8.074219 C 136.007812 7.183594 138.964844 6.363281 141.941406 5.617188 C 144.917969 4.875 147.910156 4.203125 150.921875 3.601562 C 153.929688 3.003906 156.953125 2.480469 159.988281 2.03125 C 163.023438 1.578125 166.066406 1.203125 169.121094 0.902344 C 172.175781 0.601562 175.234375 0.375 178.300781 0.226562 C 181.363281 0.0742188 184.429688 0 187.5 0 C 190.570312 0 193.636719 0.0742188 196.699219 0.226562 C 199.765625 0.375 202.824219 0.601562 205.878906 0.902344 C 208.933594 1.203125 211.976562 1.578125 215.011719 2.03125 C 218.046875 2.480469 221.070312 3.003906 224.078125 3.601562 C 227.089844 4.203125 230.082031 4.875 233.058594 5.617188 C 236.035156 6.363281 238.992188 7.183594 241.929688 8.074219 C 244.863281 8.964844 247.777344 9.925781 250.667969 10.960938 C 253.554688 11.996094 256.417969 13.097656 259.253906 14.273438 C 262.089844 15.445312 264.890625 16.691406 267.667969 18.003906 C 270.441406 19.3125 273.179688 20.691406 275.886719 22.140625 C 278.59375 23.585938 281.261719 25.097656 283.894531 26.675781 C 286.527344 28.253906 289.117188 29.894531 291.667969 31.597656 C 294.222656 33.304688 296.730469 35.070312 299.195312 36.898438 C 301.660156 38.726562 304.078125 40.613281 306.449219 42.558594 C 308.820312 44.507812 311.144531 46.511719 313.417969 48.570312 C 315.691406 50.632812 317.914062 52.746094 320.082031 54.917969 C 322.253906 57.085938 324.367188 59.308594 326.429688 61.582031 C 328.488281 63.855469 330.492188 66.179688 332.4375 68.550781 C 334.386719 70.921875 336.273438 73.339844 338.101562 75.804688 C 339.929688 78.269531 341.695312 80.777344 343.402344 83.332031 C 345.105469 85.882812 346.746094 88.472656 348.324219 91.105469 C 349.902344 93.738281 351.414062 96.40625 352.859375 99.113281 C 354.304688 101.820312 355.6875 104.558594 356.996094 107.332031 C 358.308594 110.105469 359.554688 112.910156 360.726562 115.746094 C 361.902344 118.582031 363.003906 121.445312 364.039062 124.332031 C 365.074219 127.222656 366.035156 130.136719 366.925781 133.070312 C 367.816406 136.007812 368.636719 138.964844 369.378906 141.941406 C 370.125 144.917969 370.796875 147.910156 371.398438 150.921875 C 371.996094 153.929688 372.519531 156.953125 372.96875 159.988281 C 373.421875 163.023438 373.796875 166.066406 374.097656 169.121094 C 374.398438 172.175781 374.625 175.234375 374.773438 178.300781 C 374.925781 181.363281 375 184.429688 375 187.5 Z M 375 187.5 " fill-opacity="1" fill-rule="nonzero"/><path fill="#ffffff" d="M 124.644531 106.878906 L 102.152344 106.878906 C 100.222656 106.878906 98.652344 108.445312 98.652344 110.378906 L 98.652344 132.875 C 98.652344 134.808594 100.222656 136.375 102.152344 136.375 L 124.652344 136.375 C 126.582031 136.375 128.152344 134.808594 128.152344 132.875 L 128.152344 110.378906 C 128.144531 108.4375 126.582031 106.878906 124.644531 106.878906 Z M 121.144531 129.375 L 105.652344 129.375 L 105.652344 113.878906 L 121.152344 113.878906 L 121.152344 129.375 Z M 121.144531 129.375 " fill-opacity="1" fill-rule="nonzero"/><path fill="#ffffff" d="M 159.902344 106.878906 L 137.398438 106.878906 C 135.46875 106.878906 133.898438 108.445312 133.898438 110.378906 L 133.898438 132.875 C 133.898438 134.808594 135.46875 136.375 137.398438 136.375 L 159.898438 136.375 C 161.828125 136.375 163.398438 134.808594 163.398438 132.875 L 163.398438 110.378906 C 163.402344 108.4375 161.835938 106.878906 159.902344 106.878906 Z M 156.402344 129.375 L 140.898438 129.375 L 140.898438 113.878906 L 156.398438 113.878906 L 156.398438 129.375 Z M 156.402344 129.375 " fill-opacity="1" fill-rule="nonzero"/><path fill="#ffffff" d="M 195.148438 106.878906 L 172.652344 106.878906 C 170.71875 106.878906 169.152344 108.445312 169.152344 110.378906 L 169.152344 132.875 C 169.152344 134.808594 170.71875 136.375 172.652344 136.375 L 195.148438 136.375 C 197.082031 136.375 198.648438 134.808594 198.648438 132.875 L 198.648438 110.378906 C 198.648438 108.4375 197.089844 106.878906 195.148438 106.878906 Z M 191.648438 129.375 L 176.152344 129.375 L 176.152344 113.878906 L 191.648438 113.878906 Z M 191.648438 129.375 " fill-opacity="1" fill-rule="nonzero"/><path fill="#ffffff" d="M 207.902344 136.375 L 230.402344 136.375 C 232.332031 136.375 233.902344 134.808594 233.902344 132.875 L 233.902344 110.378906 C 233.902344 108.445312 232.332031 106.878906 230.402344 106.878906 L 207.902344 106.878906 C 205.972656 106.878906 204.402344 108.445312 204.402344 110.378906 L 204.402344 132.875 C 204.402344 134.808594 205.964844 136.375 207.902344 136.375 Z M 211.402344 113.878906 L 226.902344 113.878906 L 226.902344 129.375 L 211.402344 129.375 Z M 211.402344 113.878906 " fill-opacity="1" fill-rule="nonzero"/><path fill="#ffffff" d="M 124.644531 144.375 L 102.152344 144.375 C 100.222656 144.375 98.652344 145.945312 98.652344 147.875 L 98.652344 170.375 C 98.652344 172.304688 100.222656 173.875 102.152344 173.875 L 124.652344 173.875 C 126.582031 173.875 128.152344 172.304688 128.152344 170.375 L 128.152344 147.875 C 128.144531 145.945312 126.582031 144.375 124.644531 144.375 Z M 121.144531 166.875 L 105.652344 166.875 L 105.652344 151.375 L 121.152344 151.375 L 121.152344 166.875 Z M 121.144531 166.875 " fill-opacity="1" fill-rule="nonzero"/><path fill="#ffffff" d="M 159.902344 144.375 L 137.398438 144.375 C 135.46875 144.375 133.898438 145.945312 133.898438 147.875 L 133.898438 170.375 C 133.898438 172.304688 135.46875 173.875 137.398438 173.875 L 159.898438 173.875 C 161.828125 173.875 163.398438 172.304688 163.398438 170.375 L 163.398438 147.875 C 163.402344 145.945312 161.835938 144.375 159.902344 144.375 Z M 156.402344 166.875 L 140.898438 166.875 L 140.898438 151.375 L 156.398438 151.375 L 156.398438 166.875 Z M 156.402344 166.875 " fill-opacity="1" fill-rule="nonzero"/><path fill="#ffffff" d="M 195.148438 144.375 L 172.652344 144.375 C 170.71875 144.375 169.152344 145.945312 169.152344 147.875 L 169.152344 170.375 C 169.152344 172.304688 170.71875 173.875 172.652344 173.875 L 195.148438 173.875 C 197.082031 173.875 198.648438 172.304688 198.648438 170.375 L 198.648438 147.875 C 198.648438 145.945312 197.089844 144.375 195.148438 144.375 Z M 191.648438 166.875 L 176.152344 166.875 L 176.152344 151.375 L 191.648438 151.375 Z M 191.648438 166.875 " fill-opacity="1" fill-rule="nonzero"/><g clip-path="url(#a4d06454fb)"><path fill="#ffffff" d="M 250.195312 156.953125 L 250.195312 95.445312 C 250.195312 95.425781 250.210938 95.402344 250.210938 95.375 C 250.210938 95.347656 250.195312 95.335938 250.195312 95.304688 L 250.195312 69.070312 C 250.195312 61.699219 244.199219 55.699219 236.828125 55.699219 L 229.273438 55.699219 L 229.273438 49.253906 C 229.273438 42.769531 224.003906 37.5 217.519531 37.5 C 211.039062 37.5 205.769531 42.769531 205.769531 49.253906 L 205.769531 55.699219 L 126.773438 55.699219 L 126.773438 49.253906 C 126.773438 42.769531 121.503906 37.5 115.019531 37.5 C 108.546875 37.5 103.273438 42.769531 103.273438 49.253906 L 103.273438 55.699219 L 95.707031 55.699219 C 88.335938 55.699219 82.335938 61.699219 82.335938 69.070312 L 82.335938 214.671875 C 82.335938 222.039062 88.335938 228.039062 95.707031 228.039062 L 210.214844 228.039062 C 218.691406 240.050781 232.304688 247.21875 247.117188 247.21875 C 272.050781 247.21875 292.335938 226.933594 292.335938 202 C 292.335938 178.242188 273.90625 158.746094 250.195312 156.953125 Z M 222.9375 163.808594 C 221.46875 164.738281 220.027344 165.746094 218.632812 166.859375 L 211.417969 166.859375 L 211.417969 151.390625 L 226.886719 151.390625 L 226.886719 161.554688 C 225.84375 162.078125 224.828125 162.695312 223.8125 163.304688 C 223.527344 163.480469 223.226562 163.625 222.9375 163.808594 Z M 212.773438 49.253906 C 212.773438 46.636719 214.902344 44.5 217.519531 44.5 C 220.140625 44.5 222.273438 46.636719 222.273438 49.253906 L 222.273438 55.699219 L 212.773438 55.699219 Z M 212.773438 62.699219 L 222.273438 62.699219 L 222.273438 68.378906 C 222.273438 70.996094 220.140625 73.128906 217.519531 73.128906 C 214.902344 73.128906 212.769531 70.996094 212.769531 68.378906 L 212.769531 62.699219 Z M 110.273438 49.253906 C 110.273438 46.636719 112.402344 44.5 115.019531 44.5 C 117.636719 44.5 119.773438 46.636719 119.773438 49.253906 L 119.773438 55.699219 L 110.273438 55.699219 Z M 110.273438 62.699219 L 119.773438 62.699219 L 119.773438 68.378906 C 119.773438 70.996094 117.636719 73.128906 115.019531 73.128906 C 112.402344 73.128906 110.273438 70.996094 110.273438 68.378906 Z M 95.707031 62.699219 L 103.273438 62.699219 L 103.273438 68.378906 C 103.273438 74.859375 108.546875 80.128906 115.019531 80.128906 C 121.503906 80.128906 126.773438 74.859375 126.773438 68.378906 L 126.773438 62.699219 L 205.773438 62.699219 L 205.773438 68.378906 C 205.773438 74.859375 211.046875 80.128906 217.527344 80.128906 C 224.011719 80.128906 229.28125 74.859375 229.28125 68.378906 L 229.28125 62.699219 L 236.832031 62.699219 C 240.347656 62.699219 243.203125 65.554688 243.203125 69.070312 L 243.203125 91.875 L 89.335938 91.875 L 89.335938 69.070312 C 89.335938 65.554688 92.191406 62.699219 95.707031 62.699219 Z M 95.707031 221.039062 C 92.191406 221.039062 89.335938 218.183594 89.335938 214.671875 L 89.335938 98.875 L 243.195312 98.875 L 243.195312 156.949219 C 243.070312 156.960938 242.945312 156.996094 242.820312 157.011719 C 240.683594 157.214844 238.578125 157.578125 236.496094 158.082031 C 236.070312 158.1875 235.65625 158.304688 235.238281 158.417969 C 234.789062 158.542969 234.335938 158.640625 233.886719 158.78125 L 233.886719 147.890625 C 233.886719 145.957031 232.320312 144.390625 230.386719 144.390625 L 207.917969 144.390625 C 205.984375 144.390625 204.417969 145.957031 204.417969 147.890625 L 204.417969 170.359375 C 204.417969 172.292969 205.984375 173.859375 207.917969 173.859375 L 211.730469 173.859375 C 205.390625 181.804688 201.828125 191.675781 201.828125 202 C 201.828125 203.960938 201.996094 205.898438 202.246094 207.824219 C 202.324219 208.40625 202.4375 208.972656 202.535156 209.554688 C 202.773438 210.9375 203.066406 212.3125 203.4375 213.667969 C 203.597656 214.257812 203.746094 214.839844 203.925781 215.417969 C 204.425781 217.015625 205.011719 218.582031 205.683594 220.117188 C 205.796875 220.359375 205.871094 220.621094 205.984375 220.863281 C 206.011719 220.921875 206.027344 220.976562 206.054688 221.03125 L 95.707031 221.03125 Z M 247.117188 240.21875 C 234.027344 240.21875 221.988281 233.652344 214.917969 222.644531 C 210.933594 216.46875 208.828125 209.328125 208.828125 202 C 208.828125 190.855469 213.691406 180.292969 222.140625 173.035156 C 225.136719 170.507812 228.386719 168.46875 231.78125 166.984375 C 231.78125 166.984375 231.78125 166.984375 231.785156 166.980469 C 236.519531 164.914062 241.550781 163.835938 247.117188 163.773438 C 268.195312 163.773438 285.335938 180.914062 285.335938 201.992188 C 285.335938 223.070312 268.195312 240.21875 247.117188 240.21875 Z M 247.117188 240.21875 " fill-opacity="1" fill-rule="nonzero"/></g><path fill="#ffffff" d="M 124.644531 181.875 L 102.152344 181.875 C 100.222656 181.875 98.652344 183.441406 98.652344 185.375 L 98.652344 207.871094 C 98.652344 209.804688 100.222656 211.371094 102.152344 211.371094 L 124.652344 211.371094 C 126.582031 211.371094 128.152344 209.804688 128.152344 207.871094 L 128.152344 185.375 C 128.144531 183.441406 126.582031 181.875 124.644531 181.875 Z M 121.144531 204.371094 L 105.652344 204.371094 L 105.652344 188.875 L 121.152344 188.875 L 121.152344 204.371094 Z M 121.144531 204.371094 " fill-opacity="1" fill-rule="nonzero"/><path fill="#ffffff" d="M 159.902344 181.875 L 137.398438 181.875 C 135.46875 181.875 133.898438 183.441406 133.898438 185.375 L 133.898438 207.871094 C 133.898438 209.804688 135.46875 211.371094 137.398438 211.371094 L 159.898438 211.371094 C 161.828125 211.371094 163.398438 209.804688 163.398438 207.871094 L 163.398438 185.375 C 163.402344 183.441406 161.835938 181.875 159.902344 181.875 Z M 156.402344 204.371094 L 140.898438 204.371094 L 140.898438 188.875 L 156.398438 188.875 L 156.398438 204.371094 Z M 156.402344 204.371094 " fill-opacity="1" fill-rule="nonzero"/><path fill="#ffffff" d="M 195.148438 181.875 L 172.652344 181.875 C 170.71875 181.875 169.152344 183.441406 169.152344 185.375 L 169.152344 207.871094 C 169.152344 209.804688 170.71875 211.371094 172.652344 211.371094 L 195.148438 211.371094 C 197.082031 211.371094 198.648438 209.804688 198.648438 207.871094 L 198.648438 185.375 C 198.648438 183.441406 197.089844 181.875 195.148438 181.875 Z M 191.648438 204.371094 L 176.152344 204.371094 L 176.152344 188.875 L 191.648438 188.875 Z M 191.648438 204.371094 " fill-opacity="1" fill-rule="nonzero"/><path fill="#ffffff" d="M 246.695312 177.808594 C 248.628906 177.808594 250.195312 176.238281 250.195312 174.308594 L 250.195312 170.359375 C 250.195312 168.429688 248.628906 166.859375 246.695312 166.859375 C 244.765625 166.859375 243.195312 168.429688 243.195312 170.359375 L 243.195312 174.308594 C 243.195312 176.246094 244.765625 177.808594 246.695312 177.808594 Z M 246.695312 177.808594 " fill-opacity="1" fill-rule="nonzero"/><path fill="#ffffff" d="M 246.695312 227.046875 C 244.765625 227.046875 243.195312 228.613281 243.195312 230.546875 L 243.195312 234.5 C 243.195312 236.433594 244.765625 238 246.695312 238 C 248.628906 238 250.195312 236.433594 250.195312 234.5 L 250.195312 230.546875 C 250.195312 228.613281 248.628906 227.046875 246.695312 227.046875 Z M 246.695312 227.046875 " fill-opacity="1" fill-rule="nonzero"/><path fill="#ffffff" d="M 278.769531 198.933594 L 274.816406 198.933594 C 272.882812 198.933594 271.316406 200.503906 271.316406 202.433594 C 271.316406 204.367188 272.882812 205.933594 274.816406 205.933594 L 278.769531 205.933594 C 280.703125 205.933594 282.269531 204.367188 282.269531 202.433594 C 282.269531 200.503906 280.703125 198.933594 278.769531 198.933594 Z M 278.769531 198.933594 " fill-opacity="1" fill-rule="nonzero"/><path fill="#ffffff" d="M 218.578125 198.933594 L 214.621094 198.933594 C 212.691406 198.933594 211.121094 200.503906 211.121094 202.433594 C 211.121094 204.367188 212.691406 205.933594 214.621094 205.933594 L 218.578125 205.933594 C 220.511719 205.933594 222.078125 204.367188 222.078125 202.433594 C 222.078125 200.503906 220.515625 198.933594 218.578125 198.933594 Z M 218.578125 198.933594 " fill-opacity="1" fill-rule="nonzero"/><path fill="#ffffff" d="M 250.195312 200.535156 L 250.195312 186.3125 C 250.195312 184.382812 248.628906 182.8125 246.695312 182.8125 C 244.765625 182.8125 243.195312 184.382812 243.195312 186.3125 L 243.195312 202 C 243.195312 202.9375 243.574219 203.832031 244.238281 204.492188 L 254.003906 214.117188 C 254.691406 214.789062 255.574219 215.125 256.460938 215.125 C 257.363281 215.125 258.269531 214.773438 258.953125 214.082031 C 260.3125 212.703125 260.296875 210.492188 258.917969 209.132812 Z M 250.195312 200.535156 " fill-opacity="1" fill-rule="nonzero"/><g fill="#ffffff" fill-opacity="1"><g transform="translate(81.276555, 310.811317)"><g><path d="M 9.84375 -16.015625 C 11.207031 -16.015625 12.347656 -16.097656 13.265625 -16.265625 C 14.191406 -16.429688 14.925781 -16.691406 15.46875 -17.046875 C 16.007812 -17.398438 16.398438 -17.851562 16.640625 -18.40625 C 16.878906 -18.957031 17 -19.613281 17 -20.375 L 18.328125 -20.375 L 18.328125 -10.03125 L 17 -10.03125 C 17 -10.789062 16.890625 -11.445312 16.671875 -12 C 16.460938 -12.5625 16.085938 -13.023438 15.546875 -13.390625 C 15.003906 -13.753906 14.269531 -14.03125 13.34375 -14.21875 C 12.425781 -14.40625 11.257812 -14.5 9.84375 -14.5 L 9.84375 -5.953125 C 9.84375 -5.117188 9.941406 -4.425781 10.140625 -3.875 C 10.347656 -3.332031 10.695312 -2.890625 11.1875 -2.546875 C 11.6875 -2.210938 12.335938 -1.972656 13.140625 -1.828125 C 13.953125 -1.691406 14.953125 -1.625 16.140625 -1.625 C 17.472656 -1.625 18.601562 -1.71875 19.53125 -1.90625 C 20.46875 -2.101562 21.253906 -2.425781 21.890625 -2.875 C 22.523438 -3.332031 23.03125 -3.929688 23.40625 -4.671875 C 23.78125 -5.421875 24.097656 -6.351562 24.359375 -7.46875 L 25.796875 -7.46875 L 25.21875 0 L 1.703125 0 L 1.703125 -1.4375 C 2.585938 -1.46875 3.300781 -1.546875 3.84375 -1.671875 C 4.382812 -1.796875 4.804688 -2.007812 5.109375 -2.3125 C 5.410156 -2.613281 5.613281 -3.039062 5.71875 -3.59375 C 5.820312 -4.15625 5.875 -4.875 5.875 -5.75 L 5.875 -23.40625 C 5.875 -24.289062 5.828125 -25.003906 5.734375 -25.546875 C 5.648438 -26.085938 5.472656 -26.515625 5.203125 -26.828125 C 4.941406 -27.148438 4.554688 -27.367188 4.046875 -27.484375 C 3.546875 -27.597656 2.890625 -27.675781 2.078125 -27.71875 L 2.078125 -29.15625 L 23.96875 -29.15625 L 24.3125 -22.5 L 22.984375 -22.5 C 22.835938 -23.507812 22.59375 -24.332031 22.25 -24.96875 C 21.90625 -25.613281 21.4375 -26.125 20.84375 -26.5 C 20.25 -26.882812 19.5 -27.148438 18.59375 -27.296875 C 17.6875 -27.453125 16.585938 -27.53125 15.296875 -27.53125 L 10.484375 -27.53125 C 10.054688 -27.53125 9.84375 -27.316406 9.84375 -26.890625 Z M 9.84375 -16.015625 "/></g></g></g><g fill="#ffffff" fill-opacity="1"><g transform="translate(108.773753, 310.811317)"><g><path d="M 2.921875 -9.390625 L 2.921875 -12.53125 L 14.625 -12.53125 L 14.625 -9.390625 Z M 2.921875 -9.390625 "/></g></g></g><g fill="#ffffff" fill-opacity="1"><g transform="translate(126.309842, 310.811317)"><g><path d="M 20.828125 -6.78125 L 30.671875 -29.15625 L 39.15625 -29.15625 L 39.15625 -27.71875 C 38.351562 -27.695312 37.703125 -27.597656 37.203125 -27.421875 C 36.710938 -27.242188 36.332031 -26.945312 36.0625 -26.53125 C 35.800781 -26.113281 35.625 -25.535156 35.53125 -24.796875 C 35.445312 -24.066406 35.40625 -23.132812 35.40625 -22 L 35.40625 -7.15625 C 35.40625 -5.894531 35.457031 -4.894531 35.5625 -4.15625 C 35.664062 -3.425781 35.863281 -2.859375 36.15625 -2.453125 C 36.445312 -2.054688 36.863281 -1.796875 37.40625 -1.671875 C 37.945312 -1.546875 38.660156 -1.46875 39.546875 -1.4375 L 39.546875 0 L 27.265625 0 L 27.265625 -1.4375 C 28.148438 -1.46875 28.863281 -1.550781 29.40625 -1.6875 C 29.945312 -1.820312 30.367188 -2.078125 30.671875 -2.453125 C 30.984375 -2.835938 31.1875 -3.375 31.28125 -4.0625 C 31.382812 -4.757812 31.4375 -5.703125 31.4375 -6.890625 L 31.4375 -24.46875 L 31.0625 -24.46875 L 20 0.375 L 19.171875 0.375 L 8.296875 -24.46875 L 8.140625 -24.46875 L 8.140625 -7.15625 C 8.140625 -5.894531 8.191406 -4.894531 8.296875 -4.15625 C 8.398438 -3.425781 8.59375 -2.859375 8.875 -2.453125 C 9.164062 -2.054688 9.582031 -1.796875 10.125 -1.671875 C 10.675781 -1.546875 11.390625 -1.46875 12.265625 -1.4375 L 12.265625 0 L 1.703125 0 L 1.703125 -1.4375 C 2.585938 -1.46875 3.300781 -1.550781 3.84375 -1.6875 C 4.382812 -1.820312 4.804688 -2.078125 5.109375 -2.453125 C 5.410156 -2.835938 5.613281 -3.375 5.71875 -4.0625 C 5.820312 -4.757812 5.875 -5.703125 5.875 -6.890625 L 5.875 -22.265625 C 5.875 -23.328125 5.828125 -24.203125 5.734375 -24.890625 C 5.648438 -25.585938 5.472656 -26.140625 5.203125 -26.546875 C 4.941406 -26.953125 4.554688 -27.238281 4.046875 -27.40625 C 3.546875 -27.570312 2.890625 -27.675781 2.078125 -27.71875 L 2.078125 -29.15625 L 11.140625 -29.15625 L 20.6875 -6.78125 Z M 20.828125 -6.78125 "/></g></g></g><g fill="#ffffff" fill-opacity="1"><g transform="translate(167.59352, 310.811317)"><g><path d="M 18.484375 -10.5625 L 8.375 -10.5625 C 7.9375 -9.53125 7.566406 -8.613281 7.265625 -7.8125 C 6.960938 -7.019531 6.71875 -6.332031 6.53125 -5.75 C 6.34375 -5.175781 6.207031 -4.6875 6.125 -4.28125 C 6.050781 -3.875 6.015625 -3.546875 6.015625 -3.296875 C 6.015625 -2.585938 6.242188 -2.097656 6.703125 -1.828125 C 7.160156 -1.566406 7.914062 -1.4375 8.96875 -1.4375 L 8.96875 0 L -0.234375 0 L -0.234375 -1.4375 C 0.347656 -1.507812 0.847656 -1.609375 1.265625 -1.734375 C 1.679688 -1.867188 2.046875 -2.046875 2.359375 -2.265625 C 2.679688 -2.492188 2.960938 -2.789062 3.203125 -3.15625 C 3.441406 -3.53125 3.675781 -3.976562 3.90625 -4.5 L 13.75 -29.15625 L 15.375 -29.15625 L 23.96875 -7.796875 C 24.550781 -6.390625 25.054688 -5.257812 25.484375 -4.40625 C 25.921875 -3.5625 26.335938 -2.925781 26.734375 -2.5 C 27.140625 -2.070312 27.578125 -1.796875 28.046875 -1.671875 C 28.515625 -1.546875 29.078125 -1.484375 29.734375 -1.484375 L 29.734375 0 L 17.390625 0 L 17.390625 -1.484375 C 18.722656 -1.484375 19.640625 -1.609375 20.140625 -1.859375 C 20.648438 -2.109375 20.90625 -2.523438 20.90625 -3.109375 C 20.90625 -3.359375 20.890625 -3.585938 20.859375 -3.796875 C 20.835938 -4.015625 20.796875 -4.25 20.734375 -4.5 C 20.671875 -4.757812 20.582031 -5.046875 20.46875 -5.359375 C 20.351562 -5.671875 20.207031 -6.046875 20.03125 -6.484375 Z M 9.125 -12.453125 L 17.765625 -12.453125 L 13.5625 -23.640625 Z M 9.125 -12.453125 "/></g></g></g><g fill="#ffffff" fill-opacity="1"><g transform="translate(196.832966, 310.811317)"><g><path d="M 26.28125 0.375 L 8.296875 -23.328125 L 8.140625 -23.328125 L 8.140625 -7.15625 C 8.140625 -5.894531 8.179688 -4.894531 8.265625 -4.15625 C 8.359375 -3.425781 8.535156 -2.859375 8.796875 -2.453125 C 9.066406 -2.054688 9.445312 -1.796875 9.9375 -1.671875 C 10.4375 -1.546875 11.085938 -1.46875 11.890625 -1.4375 L 11.890625 0 L 1.703125 0 L 1.703125 -1.4375 C 2.585938 -1.46875 3.300781 -1.550781 3.84375 -1.6875 C 4.382812 -1.820312 4.804688 -2.078125 5.109375 -2.453125 C 5.410156 -2.835938 5.613281 -3.375 5.71875 -4.0625 C 5.820312 -4.757812 5.875 -5.703125 5.875 -6.890625 L 5.875 -22.265625 C 5.875 -23.328125 5.828125 -24.203125 5.734375 -24.890625 C 5.648438 -25.585938 5.472656 -26.140625 5.203125 -26.546875 C 4.941406 -26.953125 4.554688 -27.238281 4.046875 -27.40625 C 3.546875 -27.570312 2.890625 -27.675781 2.078125 -27.71875 L 2.078125 -29.15625 L 9.578125 -29.15625 L 26.140625 -7.078125 L 26.28125 -7.078125 L 26.28125 -22 C 26.28125 -23.238281 26.234375 -24.226562 26.140625 -24.96875 C 26.054688 -25.71875 25.878906 -26.296875 25.609375 -26.703125 C 25.347656 -27.109375 24.972656 -27.375 24.484375 -27.5 C 23.992188 -27.625 23.34375 -27.695312 22.53125 -27.71875 L 22.53125 -29.15625 L 32.71875 -29.15625 L 32.71875 -27.71875 C 31.832031 -27.695312 31.117188 -27.613281 30.578125 -27.46875 C 30.035156 -27.332031 29.613281 -27.078125 29.3125 -26.703125 C 29.007812 -26.328125 28.804688 -25.785156 28.703125 -25.078125 C 28.609375 -24.367188 28.5625 -23.429688 28.5625 -22.265625 L 28.5625 0.375 Z M 26.28125 0.375 "/></g></g></g><g fill="#ffffff" fill-opacity="1"><g transform="translate(230.996153, 310.811317)"><g><path d="M 1.4375 0 L 1.4375 -1.4375 C 2.394531 -1.46875 3.171875 -1.535156 3.765625 -1.640625 C 4.359375 -1.753906 4.816406 -1.96875 5.140625 -2.28125 C 5.472656 -2.601562 5.695312 -3.035156 5.8125 -3.578125 C 5.925781 -4.117188 5.984375 -4.84375 5.984375 -5.75 L 5.984375 -23.40625 C 5.984375 -24.289062 5.9375 -25.003906 5.84375 -25.546875 C 5.757812 -26.085938 5.582031 -26.515625 5.3125 -26.828125 C 5.050781 -27.148438 4.664062 -27.367188 4.15625 -27.484375 C 3.65625 -27.597656 3.003906 -27.675781 2.203125 -27.71875 L 2.203125 -29.15625 L 15.484375 -29.15625 C 17.765625 -29.15625 19.867188 -28.773438 21.796875 -28.015625 C 23.722656 -27.265625 25.390625 -26.21875 26.796875 -24.875 C 28.203125 -23.539062 29.296875 -21.953125 30.078125 -20.109375 C 30.859375 -18.265625 31.25 -16.257812 31.25 -14.09375 C 31.25 -12.019531 30.878906 -10.117188 30.140625 -8.390625 C 29.410156 -6.660156 28.382812 -5.175781 27.0625 -3.9375 C 25.738281 -2.695312 24.15625 -1.726562 22.3125 -1.03125 C 20.46875 -0.34375 18.445312 0 16.25 0 Z M 10.609375 -27.3125 C 10.179688 -27.3125 9.96875 -27.09375 9.96875 -26.65625 L 9.96875 -6.171875 C 9.96875 -3.296875 11.847656 -1.859375 15.609375 -1.859375 C 19.066406 -1.859375 21.71875 -2.882812 23.5625 -4.9375 C 25.40625 -7 26.328125 -10.023438 26.328125 -14.015625 C 26.328125 -16.109375 26.070312 -17.972656 25.5625 -19.609375 C 25.0625 -21.253906 24.335938 -22.644531 23.390625 -23.78125 C 22.441406 -24.914062 21.296875 -25.785156 19.953125 -26.390625 C 18.617188 -27.003906 17.109375 -27.3125 15.421875 -27.3125 Z M 10.609375 -27.3125 "/></g></g></g><g fill="#ffffff" fill-opacity="1"><g transform="translate(264.477593, 310.811317)"><g><path d="M 18.484375 -10.5625 L 8.375 -10.5625 C 7.9375 -9.53125 7.566406 -8.613281 7.265625 -7.8125 C 6.960938 -7.019531 6.71875 -6.332031 6.53125 -5.75 C 6.34375 -5.175781 6.207031 -4.6875 6.125 -4.28125 C 6.050781 -3.875 6.015625 -3.546875 6.015625 -3.296875 C 6.015625 -2.585938 6.242188 -2.097656 6.703125 -1.828125 C 7.160156 -1.566406 7.914062 -1.4375 8.96875 -1.4375 L 8.96875 0 L -0.234375 0 L -0.234375 -1.4375 C 0.347656 -1.507812 0.847656 -1.609375 1.265625 -1.734375 C 1.679688 -1.867188 2.046875 -2.046875 2.359375 -2.265625 C 2.679688 -2.492188 2.960938 -2.789062 3.203125 -3.15625 C 3.441406 -3.53125 3.675781 -3.976562 3.90625 -4.5 L 13.75 -29.15625 L 15.375 -29.15625 L 23.96875 -7.796875 C 24.550781 -6.390625 25.054688 -5.257812 25.484375 -4.40625 C 25.921875 -3.5625 26.335938 -2.925781 26.734375 -2.5 C 27.140625 -2.070312 27.578125 -1.796875 28.046875 -1.671875 C 28.515625 -1.546875 29.078125 -1.484375 29.734375 -1.484375 L 29.734375 0 L 17.390625 0 L 17.390625 -1.484375 C 18.722656 -1.484375 19.640625 -1.609375 20.140625 -1.859375 C 20.648438 -2.109375 20.90625 -2.523438 20.90625 -3.109375 C 20.90625 -3.359375 20.890625 -3.585938 20.859375 -3.796875 C 20.835938 -4.015625 20.796875 -4.25 20.734375 -4.5 C 20.671875 -4.757812 20.582031 -5.046875 20.46875 -5.359375 C 20.351562 -5.671875 20.207031 -6.046875 20.03125 -6.484375 Z M 9.125 -12.453125 L 17.765625 -12.453125 L 13.5625 -23.640625 Z M 9.125 -12.453125 "/></g></g></g></svg>