<svg xmlns="http://www.w3.org/2000/svg" xmlns:xlink="http://www.w3.org/1999/xlink" width="500" zoomAndPan="magnify" viewBox="0 0 375 374.999991" height="500" preserveAspectRatio="xMidYMid meet" version="1.0"><defs><g/><clipPath id="6e6c3e9c63"><path d="M 64.292969 47.285156 L 311.792969 47.285156 L 311.792969 294.785156 L 64.292969 294.785156 Z M 64.292969 47.285156 " clip-rule="nonzero"/></clipPath></defs><path fill="#ffffff" d="M 375 187.5 C 375 190.570312 374.925781 193.636719 374.773438 196.699219 C 374.625 199.765625 374.398438 202.824219 374.097656 205.878906 C 373.796875 208.933594 373.421875 211.976562 372.96875 215.011719 C 372.519531 218.046875 371.996094 221.070312 371.398438 224.078125 C 370.796875 227.089844 370.125 230.082031 369.378906 233.058594 C 368.636719 236.035156 367.816406 238.992188 366.925781 241.929688 C 366.035156 244.863281 365.074219 247.777344 364.039062 250.667969 C 363.003906 253.554688 361.902344 256.417969 360.726562 259.253906 C 359.554688 262.089844 358.308594 264.890625 356.996094 267.667969 C 355.6875 270.441406 354.304688 273.179688 352.859375 275.886719 C 351.414062 278.59375 349.902344 281.261719 348.324219 283.894531 C 346.746094 286.527344 345.105469 289.117188 343.402344 291.667969 C 341.695312 294.222656 339.929688 296.730469 338.101562 299.195312 C 336.273438 301.660156 334.386719 304.078125 332.4375 306.449219 C 330.492188 308.820312 328.488281 311.144531 326.429688 313.417969 C 324.367188 315.691406 322.253906 317.914062 320.082031 320.082031 C 317.914062 322.253906 315.691406 324.367188 313.417969 326.429688 C 311.144531 328.488281 308.820312 330.492188 306.449219 332.4375 C 304.078125 334.386719 301.660156 336.273438 299.195312 338.101562 C 296.730469 339.929688 294.222656 341.695312 291.667969 343.402344 C 289.117188 345.105469 286.527344 346.746094 283.894531 348.324219 C 281.261719 349.902344 278.59375 351.414062 275.886719 352.859375 C 273.179688 354.308594 270.441406 355.6875 267.667969 356.996094 C 264.890625 358.308594 262.089844 359.554688 259.253906 360.726562 C 256.417969 361.902344 253.554688 363.003906 250.667969 364.039062 C 247.777344 365.074219 244.863281 366.035156 241.929688 366.925781 C 238.992188 367.816406 236.035156 368.636719 233.058594 369.378906 C 230.082031 370.125 227.089844 370.796875 224.078125 371.398438 C 221.070312 371.996094 218.046875 372.519531 215.011719 372.96875 C 211.976562 373.421875 208.933594 373.796875 205.878906 374.097656 C 202.824219 374.398438 199.765625 374.625 196.699219 374.773438 C 193.636719 374.925781 190.570312 375 187.5 375 C 184.429688 375 181.363281 374.925781 178.300781 374.773438 C 175.234375 374.625 172.175781 374.398438 169.121094 374.097656 C 166.066406 373.796875 163.023438 373.421875 159.988281 372.96875 C 156.953125 372.519531 153.929688 371.996094 150.921875 371.398438 C 147.910156 370.796875 144.917969 370.125 141.941406 369.378906 C 138.964844 368.636719 136.007812 367.816406 133.070312 366.925781 C 130.136719 366.035156 127.222656 365.074219 124.332031 364.039062 C 121.445312 363.003906 118.582031 361.902344 115.746094 360.726562 C 112.910156 359.554688 110.105469 358.308594 107.332031 356.996094 C 104.558594 355.6875 101.820312 354.308594 99.113281 352.859375 C 96.40625 351.414062 93.738281 349.902344 91.105469 348.324219 C 88.472656 346.746094 85.882812 345.105469 83.332031 343.402344 C 80.777344 341.695312 78.269531 339.929688 75.804688 338.101562 C 73.339844 336.273438 70.921875 334.386719 68.550781 332.4375 C 66.179688 330.492188 63.855469 328.488281 61.582031 326.429688 C 59.308594 324.367188 57.085938 322.253906 54.917969 320.082031 C 52.746094 317.914062 50.632812 315.691406 48.570312 313.417969 C 46.511719 311.144531 44.507812 308.820312 42.558594 306.449219 C 40.613281 304.078125 38.726562 301.660156 36.898438 299.195312 C 35.070312 296.730469 33.304688 294.222656 31.597656 291.667969 C 29.894531 289.117188 28.253906 286.527344 26.675781 283.894531 C 25.097656 281.261719 23.585938 278.59375 22.140625 275.886719 C 20.691406 273.179688 19.3125 270.441406 18.003906 267.667969 C 16.691406 264.890625 15.445312 262.089844 14.273438 259.253906 C 13.097656 256.417969 11.996094 253.554688 10.960938 250.667969 C 9.925781 247.777344 8.964844 244.863281 8.074219 241.929688 C 7.183594 238.992188 6.363281 236.035156 5.617188 233.058594 C 4.875 230.082031 4.203125 227.089844 3.601562 224.078125 C 3.003906 221.070312 2.480469 218.046875 2.03125 215.011719 C 1.578125 211.976562 1.203125 208.933594 0.902344 205.878906 C 0.601562 202.824219 0.375 199.765625 0.226562 196.699219 C 0.0742188 193.636719 0 190.570312 0 187.5 C 0 184.429688 0.0742188 181.363281 0.226562 178.300781 C 0.375 175.234375 0.601562 172.175781 0.902344 169.121094 C 1.203125 166.066406 1.578125 163.023438 2.03125 159.988281 C 2.480469 156.953125 3.003906 153.929688 3.601562 150.921875 C 4.203125 147.910156 4.875 144.917969 5.617188 141.941406 C 6.363281 138.964844 7.183594 136.007812 8.074219 133.070312 C 8.964844 130.136719 9.925781 127.222656 10.960938 124.332031 C 11.996094 121.445312 13.097656 118.582031 14.273438 115.746094 C 15.445312 112.910156 16.691406 110.105469 18.003906 107.332031 C 19.3125 104.558594 20.691406 101.820312 22.140625 99.113281 C 23.585938 96.40625 25.097656 93.738281 26.675781 91.105469 C 28.253906 88.472656 29.894531 85.882812 31.597656 83.332031 C 33.304688 80.777344 35.070312 78.269531 36.898438 75.804688 C 38.726562 73.339844 40.613281 70.921875 42.558594 68.550781 C 44.507812 66.179688 46.511719 63.855469 48.570312 61.582031 C 50.632812 59.308594 52.746094 57.085938 54.917969 54.917969 C 57.085938 52.746094 59.308594 50.632812 61.582031 48.570312 C 63.855469 46.511719 66.179688 44.507812 68.550781 42.558594 C 70.921875 40.613281 73.339844 38.726562 75.804688 36.898438 C 78.269531 35.070312 80.777344 33.304688 83.332031 31.597656 C 85.882812 29.894531 88.472656 28.253906 91.105469 26.675781 C 93.738281 25.097656 96.40625 23.585938 99.113281 22.140625 C 101.820312 20.691406 104.558594 19.3125 107.332031 18.003906 C 110.105469 16.691406 112.910156 15.445312 115.746094 14.273438 C 118.582031 13.097656 121.445312 11.996094 124.332031 10.960938 C 127.222656 9.925781 130.136719 8.964844 133.070312 8.074219 C 136.007812 7.183594 138.964844 6.363281 141.941406 5.617188 C 144.917969 4.875 147.910156 4.203125 150.921875 3.601562 C 153.929688 3.003906 156.953125 2.480469 159.988281 2.03125 C 163.023438 1.578125 166.066406 1.203125 169.121094 0.902344 C 172.175781 0.601562 175.234375 0.375 178.300781 0.226562 C 181.363281 0.0742188 184.429688 0 187.5 0 C 190.570312 0 193.636719 0.0742188 196.699219 0.226562 C 199.765625 0.375 202.824219 0.601562 205.878906 0.902344 C 208.933594 1.203125 211.976562 1.578125 215.011719 2.03125 C 218.046875 2.480469 221.070312 3.003906 224.078125 3.601562 C 227.089844 4.203125 230.082031 4.875 233.058594 5.617188 C 236.035156 6.363281 238.992188 7.183594 241.929688 8.074219 C 244.863281 8.964844 247.777344 9.925781 250.667969 10.960938 C 253.554688 11.996094 256.417969 13.097656 259.253906 14.273438 C 262.089844 15.445312 264.890625 16.691406 267.667969 18.003906 C 270.441406 19.3125 273.179688 20.691406 275.886719 22.140625 C 278.59375 23.585938 281.261719 25.097656 283.894531 26.675781 C 286.527344 28.253906 289.117188 29.894531 291.667969 31.597656 C 294.222656 33.304688 296.730469 35.070312 299.195312 36.898438 C 301.660156 38.726562 304.078125 40.613281 306.449219 42.558594 C 308.820312 44.507812 311.144531 46.511719 313.417969 48.570312 C 315.691406 50.632812 317.914062 52.746094 320.082031 54.917969 C 322.253906 57.085938 324.367188 59.308594 326.429688 61.582031 C 328.488281 63.855469 330.492188 66.179688 332.4375 68.550781 C 334.386719 70.921875 336.273438 73.339844 338.101562 75.804688 C 339.929688 78.269531 341.695312 80.777344 343.402344 83.332031 C 345.105469 85.882812 346.746094 88.472656 348.324219 91.105469 C 349.902344 93.738281 351.414062 96.40625 352.859375 99.113281 C 354.304688 101.820312 355.6875 104.558594 356.996094 107.332031 C 358.308594 110.105469 359.554688 112.910156 360.726562 115.746094 C 361.902344 118.582031 363.003906 121.445312 364.039062 124.332031 C 365.074219 127.222656 366.035156 130.136719 366.925781 133.070312 C 367.816406 136.007812 368.636719 138.964844 369.378906 141.941406 C 370.125 144.917969 370.796875 147.910156 371.398438 150.921875 C 371.996094 153.929688 372.519531 156.953125 372.96875 159.988281 C 373.421875 163.023438 373.796875 166.066406 374.097656 169.121094 C 374.398438 172.175781 374.625 175.234375 374.773438 178.300781 C 374.925781 181.363281 375 184.429688 375 187.5 Z M 375 187.5 " fill-opacity="1" fill-rule="nonzero"/><path fill="#083681" d="M 114.15625 129.050781 L 87.648438 129.050781 C 85.371094 129.050781 83.523438 130.898438 83.523438 133.175781 L 83.523438 159.691406 C 83.523438 161.96875 85.371094 163.816406 87.648438 163.816406 L 114.164062 163.816406 C 116.441406 163.816406 118.289062 161.96875 118.289062 159.691406 L 118.289062 133.175781 C 118.28125 130.890625 116.441406 129.050781 114.15625 129.050781 Z M 110.03125 155.566406 L 91.773438 155.566406 L 91.773438 137.300781 L 110.039062 137.300781 L 110.039062 155.566406 Z M 110.03125 155.566406 " fill-opacity="1" fill-rule="nonzero"/><path fill="#083681" d="M 155.710938 129.050781 L 129.1875 129.050781 C 126.910156 129.050781 125.0625 130.898438 125.0625 133.175781 L 125.0625 159.691406 C 125.0625 161.96875 126.910156 163.816406 129.1875 163.816406 L 155.703125 163.816406 C 157.980469 163.816406 159.828125 161.96875 159.828125 159.691406 L 159.828125 133.175781 C 159.835938 130.890625 157.988281 129.050781 155.710938 129.050781 Z M 151.585938 155.566406 L 133.3125 155.566406 L 133.3125 137.300781 L 151.578125 137.300781 L 151.578125 155.566406 Z M 151.585938 155.566406 " fill-opacity="1" fill-rule="nonzero"/><path fill="#083681" d="M 197.25 129.050781 L 170.734375 129.050781 C 168.457031 129.050781 166.609375 130.898438 166.609375 133.175781 L 166.609375 159.691406 C 166.609375 161.96875 168.457031 163.816406 170.734375 163.816406 L 197.25 163.816406 C 199.527344 163.816406 201.375 161.96875 201.375 159.691406 L 201.375 133.175781 C 201.375 130.890625 199.535156 129.050781 197.25 129.050781 Z M 193.125 155.566406 L 174.859375 155.566406 L 174.859375 137.300781 L 193.125 137.300781 Z M 193.125 155.566406 " fill-opacity="1" fill-rule="nonzero"/><path fill="#083681" d="M 212.28125 163.816406 L 238.796875 163.816406 C 241.074219 163.816406 242.921875 161.96875 242.921875 159.691406 L 242.921875 133.175781 C 242.921875 130.898438 241.074219 129.050781 238.796875 129.050781 L 212.28125 129.050781 C 210.003906 129.050781 208.15625 130.898438 208.15625 133.175781 L 208.15625 159.691406 C 208.15625 161.96875 209.996094 163.816406 212.28125 163.816406 Z M 216.40625 137.300781 L 234.671875 137.300781 L 234.671875 155.566406 L 216.40625 155.566406 Z M 216.40625 137.300781 " fill-opacity="1" fill-rule="nonzero"/><path fill="#083681" d="M 114.15625 173.246094 L 87.648438 173.246094 C 85.371094 173.246094 83.523438 175.09375 83.523438 177.371094 L 83.523438 203.886719 C 83.523438 206.164062 85.371094 208.011719 87.648438 208.011719 L 114.164062 208.011719 C 116.441406 208.011719 118.289062 206.164062 118.289062 203.886719 L 118.289062 177.371094 C 118.28125 175.09375 116.441406 173.246094 114.15625 173.246094 Z M 110.03125 199.761719 L 91.773438 199.761719 L 91.773438 181.496094 L 110.039062 181.496094 L 110.039062 199.761719 Z M 110.03125 199.761719 " fill-opacity="1" fill-rule="nonzero"/><path fill="#083681" d="M 155.710938 173.246094 L 129.1875 173.246094 C 126.910156 173.246094 125.0625 175.09375 125.0625 177.371094 L 125.0625 203.886719 C 125.0625 206.164062 126.910156 208.011719 129.1875 208.011719 L 155.703125 208.011719 C 157.980469 208.011719 159.828125 206.164062 159.828125 203.886719 L 159.828125 177.371094 C 159.835938 175.09375 157.988281 173.246094 155.710938 173.246094 Z M 151.585938 199.761719 L 133.3125 199.761719 L 133.3125 181.496094 L 151.578125 181.496094 L 151.578125 199.761719 Z M 151.585938 199.761719 " fill-opacity="1" fill-rule="nonzero"/><path fill="#083681" d="M 197.25 173.246094 L 170.734375 173.246094 C 168.457031 173.246094 166.609375 175.09375 166.609375 177.371094 L 166.609375 203.886719 C 166.609375 206.164062 168.457031 208.011719 170.734375 208.011719 L 197.25 208.011719 C 199.527344 208.011719 201.375 206.164062 201.375 203.886719 L 201.375 177.371094 C 201.375 175.09375 199.535156 173.246094 197.25 173.246094 Z M 193.125 199.761719 L 174.859375 199.761719 L 174.859375 181.496094 L 193.125 181.496094 Z M 193.125 199.761719 " fill-opacity="1" fill-rule="nonzero"/><g clip-path="url(#6e6c3e9c63)"><path fill="#083681" d="M 262.128906 188.070312 L 262.128906 115.578125 C 262.128906 115.554688 262.144531 115.53125 262.144531 115.496094 C 262.144531 115.464844 262.128906 115.445312 262.128906 115.414062 L 262.128906 84.492188 C 262.128906 75.804688 255.058594 68.734375 246.371094 68.734375 L 237.46875 68.734375 L 237.46875 61.136719 C 237.46875 53.496094 231.257812 47.285156 223.617188 47.285156 C 215.976562 47.285156 209.765625 53.496094 209.765625 61.136719 L 209.765625 68.734375 L 116.664062 68.734375 L 116.664062 61.136719 C 116.664062 53.496094 110.453125 47.285156 102.8125 47.285156 C 95.179688 47.285156 88.96875 53.496094 88.96875 61.136719 L 88.96875 68.734375 L 80.050781 68.734375 C 71.363281 68.734375 64.292969 75.804688 64.292969 84.492188 L 64.292969 256.09375 C 64.292969 264.78125 71.363281 271.851562 80.050781 271.851562 L 215.003906 271.851562 C 224.996094 286.007812 241.039062 294.457031 258.496094 294.457031 C 287.882812 294.457031 311.792969 270.546875 311.792969 241.160156 C 311.792969 213.160156 290.070312 190.183594 262.128906 188.070312 Z M 230.003906 196.148438 C 228.269531 197.246094 226.570312 198.433594 224.929688 199.746094 L 216.421875 199.746094 L 216.421875 181.511719 L 234.65625 181.511719 L 234.65625 193.492188 C 233.425781 194.109375 232.230469 194.835938 231.035156 195.554688 C 230.695312 195.761719 230.339844 195.933594 230.003906 196.148438 Z M 218.023438 61.136719 C 218.023438 58.050781 220.53125 55.535156 223.617188 55.535156 C 226.703125 55.535156 229.21875 58.050781 229.21875 61.136719 L 229.21875 68.734375 L 218.023438 68.734375 Z M 218.023438 76.984375 L 229.21875 76.984375 L 229.21875 83.675781 C 229.21875 86.761719 226.703125 89.277344 223.617188 89.277344 C 220.53125 89.277344 218.015625 86.761719 218.015625 83.675781 L 218.015625 76.984375 Z M 97.21875 61.136719 C 97.21875 58.050781 99.726562 55.535156 102.8125 55.535156 C 105.898438 55.535156 108.414062 58.050781 108.414062 61.136719 L 108.414062 68.734375 L 97.21875 68.734375 Z M 97.21875 76.984375 L 108.414062 76.984375 L 108.414062 83.675781 C 108.414062 86.761719 105.898438 89.277344 102.8125 89.277344 C 99.726562 89.277344 97.21875 86.761719 97.21875 83.675781 Z M 80.050781 76.984375 L 88.96875 76.984375 L 88.96875 83.675781 C 88.96875 91.316406 95.179688 97.527344 102.8125 97.527344 C 110.453125 97.527344 116.664062 91.316406 116.664062 83.675781 L 116.664062 76.984375 L 209.773438 76.984375 L 209.773438 83.675781 C 209.773438 91.316406 215.984375 97.527344 223.625 97.527344 C 231.265625 97.527344 237.476562 91.316406 237.476562 83.675781 L 237.476562 76.984375 L 246.378906 76.984375 C 250.519531 76.984375 253.886719 80.351562 253.886719 84.492188 L 253.886719 111.371094 L 72.542969 111.371094 L 72.542969 84.492188 C 72.542969 80.351562 75.910156 76.984375 80.050781 76.984375 Z M 80.050781 263.601562 C 75.910156 263.601562 72.542969 260.234375 72.542969 256.09375 L 72.542969 119.621094 L 253.878906 119.621094 L 253.878906 188.0625 C 253.730469 188.082031 253.582031 188.121094 253.433594 188.136719 C 250.917969 188.378906 248.433594 188.804688 245.984375 189.398438 C 245.480469 189.523438 244.992188 189.664062 244.496094 189.796875 C 243.96875 189.945312 243.433594 190.058594 242.90625 190.226562 L 242.90625 177.386719 C 242.90625 175.109375 241.058594 173.261719 238.78125 173.261719 L 212.296875 173.261719 C 210.019531 173.261719 208.171875 175.109375 208.171875 177.386719 L 208.171875 203.871094 C 208.171875 206.148438 210.019531 207.996094 212.296875 207.996094 L 216.792969 207.996094 C 209.320312 217.359375 205.121094 228.992188 205.121094 241.160156 C 205.121094 243.46875 205.316406 245.757812 205.617188 248.023438 C 205.707031 248.710938 205.839844 249.378906 205.953125 250.0625 C 206.234375 251.695312 206.582031 253.3125 207.019531 254.914062 C 207.207031 255.605469 207.378906 256.292969 207.59375 256.976562 C 208.179688 258.855469 208.875 260.703125 209.667969 262.511719 C 209.796875 262.800781 209.890625 263.105469 210.019531 263.394531 C 210.054688 263.460938 210.070312 263.527344 210.101562 263.59375 L 80.050781 263.59375 Z M 258.496094 286.207031 C 243.070312 286.207031 228.878906 278.46875 220.546875 265.488281 C 215.855469 258.214844 213.371094 249.796875 213.371094 241.160156 C 213.371094 228.027344 219.105469 215.578125 229.0625 207.023438 C 232.59375 204.042969 236.421875 201.644531 240.421875 199.894531 C 240.421875 199.894531 240.421875 199.894531 240.429688 199.886719 C 246.007812 197.453125 251.9375 196.183594 258.496094 196.105469 C 283.339844 196.105469 303.542969 216.3125 303.542969 241.152344 C 303.542969 265.992188 283.339844 286.207031 258.496094 286.207031 Z M 258.496094 286.207031 " fill-opacity="1" fill-rule="nonzero"/></g><path fill="#083681" d="M 114.15625 217.441406 L 87.648438 217.441406 C 85.371094 217.441406 83.523438 219.289062 83.523438 221.566406 L 83.523438 248.082031 C 83.523438 250.359375 85.371094 252.207031 87.648438 252.207031 L 114.164062 252.207031 C 116.441406 252.207031 118.289062 250.359375 118.289062 248.082031 L 118.289062 221.566406 C 118.28125 219.289062 116.441406 217.441406 114.15625 217.441406 Z M 110.03125 243.957031 L 91.773438 243.957031 L 91.773438 225.691406 L 110.039062 225.691406 L 110.039062 243.957031 Z M 110.03125 243.957031 " fill-opacity="1" fill-rule="nonzero"/><path fill="#083681" d="M 155.710938 217.441406 L 129.1875 217.441406 C 126.910156 217.441406 125.0625 219.289062 125.0625 221.566406 L 125.0625 248.082031 C 125.0625 250.359375 126.910156 252.207031 129.1875 252.207031 L 155.703125 252.207031 C 157.980469 252.207031 159.828125 250.359375 159.828125 248.082031 L 159.828125 221.566406 C 159.835938 219.289062 157.988281 217.441406 155.710938 217.441406 Z M 151.585938 243.957031 L 133.3125 243.957031 L 133.3125 225.691406 L 151.578125 225.691406 L 151.578125 243.957031 Z M 151.585938 243.957031 " fill-opacity="1" fill-rule="nonzero"/><path fill="#083681" d="M 197.25 217.441406 L 170.734375 217.441406 C 168.457031 217.441406 166.609375 219.289062 166.609375 221.566406 L 166.609375 248.082031 C 166.609375 250.359375 168.457031 252.207031 170.734375 252.207031 L 197.25 252.207031 C 199.527344 252.207031 201.375 250.359375 201.375 248.082031 L 201.375 221.566406 C 201.375 219.289062 199.535156 217.441406 197.25 217.441406 Z M 193.125 243.957031 L 174.859375 243.957031 L 174.859375 225.691406 L 193.125 225.691406 Z M 193.125 243.957031 " fill-opacity="1" fill-rule="nonzero"/><path fill="#083681" d="M 258.003906 212.648438 C 260.28125 212.648438 262.128906 210.800781 262.128906 208.523438 L 262.128906 203.871094 C 262.128906 201.59375 260.28125 199.746094 258.003906 199.746094 C 255.726562 199.746094 253.878906 201.59375 253.878906 203.871094 L 253.878906 208.523438 C 253.878906 210.808594 255.726562 212.648438 258.003906 212.648438 Z M 258.003906 212.648438 " fill-opacity="1" fill-rule="nonzero"/><path fill="#083681" d="M 258.003906 270.679688 C 255.726562 270.679688 253.878906 272.527344 253.878906 274.804688 L 253.878906 279.464844 C 253.878906 281.742188 255.726562 283.589844 258.003906 283.589844 C 260.28125 283.589844 262.128906 281.742188 262.128906 279.464844 L 262.128906 274.804688 C 262.128906 272.527344 260.28125 270.679688 258.003906 270.679688 Z M 258.003906 270.679688 " fill-opacity="1" fill-rule="nonzero"/><path fill="#083681" d="M 295.804688 237.546875 L 291.144531 237.546875 C 288.867188 237.546875 287.019531 239.394531 287.019531 241.671875 C 287.019531 243.949219 288.867188 245.796875 291.144531 245.796875 L 295.804688 245.796875 C 298.082031 245.796875 299.929688 243.949219 299.929688 241.671875 C 299.929688 239.394531 298.082031 237.546875 295.804688 237.546875 Z M 295.804688 237.546875 " fill-opacity="1" fill-rule="nonzero"/><path fill="#083681" d="M 224.863281 237.546875 L 220.203125 237.546875 C 217.925781 237.546875 216.078125 239.394531 216.078125 241.671875 C 216.078125 243.949219 217.925781 245.796875 220.203125 245.796875 L 224.863281 245.796875 C 227.140625 245.796875 228.988281 243.949219 228.988281 241.671875 C 228.988281 239.394531 227.148438 237.546875 224.863281 237.546875 Z M 224.863281 237.546875 " fill-opacity="1" fill-rule="nonzero"/><path fill="#083681" d="M 262.128906 239.4375 L 262.128906 222.671875 C 262.128906 220.394531 260.28125 218.546875 258.003906 218.546875 C 255.726562 218.546875 253.878906 220.394531 253.878906 222.671875 L 253.878906 241.160156 C 253.878906 242.265625 254.324219 243.320312 255.105469 244.097656 L 266.617188 255.441406 C 267.425781 256.234375 268.464844 256.628906 269.511719 256.628906 C 270.574219 256.628906 271.640625 256.21875 272.449219 255.398438 C 274.050781 253.773438 274.03125 251.167969 272.40625 249.566406 Z M 262.128906 239.4375 " fill-opacity="1" fill-rule="nonzero"/><g fill="#000000" fill-opacity="1"><g transform="translate(187.499992, 197.624987)"><g/></g></g><g fill="#083681" fill-opacity="1"><g transform="translate(96.346866, 329.285983)"><g><path d="M 8.421875 -13.6875 C 9.585938 -13.6875 10.5625 -13.753906 11.34375 -13.890625 C 12.132812 -14.035156 12.757812 -14.257812 13.21875 -14.5625 C 13.6875 -14.863281 14.019531 -15.253906 14.21875 -15.734375 C 14.425781 -16.210938 14.53125 -16.773438 14.53125 -17.421875 L 15.671875 -17.421875 L 15.671875 -8.578125 L 14.53125 -8.578125 C 14.53125 -9.222656 14.4375 -9.78125 14.25 -10.25 C 14.070312 -10.726562 13.75 -11.125 13.28125 -11.4375 C 12.820312 -11.75 12.195312 -11.988281 11.40625 -12.15625 C 10.625 -12.320312 9.628906 -12.40625 8.421875 -12.40625 L 8.421875 -5.078125 C 8.421875 -4.367188 8.503906 -3.78125 8.671875 -3.3125 C 8.847656 -2.851562 9.144531 -2.476562 9.5625 -2.1875 C 9.988281 -1.894531 10.546875 -1.6875 11.234375 -1.5625 C 11.921875 -1.445312 12.773438 -1.390625 13.796875 -1.390625 C 14.929688 -1.390625 15.898438 -1.46875 16.703125 -1.625 C 17.503906 -1.789062 18.171875 -2.066406 18.703125 -2.453125 C 19.242188 -2.847656 19.675781 -3.363281 20 -4 C 20.332031 -4.632812 20.601562 -5.425781 20.8125 -6.375 L 22.046875 -6.375 L 21.5625 0 L 1.453125 0 L 1.453125 -1.234375 C 2.210938 -1.253906 2.820312 -1.316406 3.28125 -1.421875 C 3.75 -1.535156 4.113281 -1.71875 4.375 -1.96875 C 4.632812 -2.226562 4.804688 -2.59375 4.890625 -3.0625 C 4.972656 -3.539062 5.015625 -4.160156 5.015625 -4.921875 L 5.015625 -20 C 5.015625 -20.757812 4.976562 -21.367188 4.90625 -21.828125 C 4.832031 -22.296875 4.679688 -22.664062 4.453125 -22.9375 C 4.222656 -23.207031 3.890625 -23.390625 3.453125 -23.484375 C 3.023438 -23.585938 2.46875 -23.660156 1.78125 -23.703125 L 1.78125 -24.921875 L 20.5 -24.921875 L 20.78125 -19.234375 L 19.65625 -19.234375 C 19.519531 -20.097656 19.304688 -20.800781 19.015625 -21.34375 C 18.722656 -21.894531 18.320312 -22.332031 17.8125 -22.65625 C 17.3125 -22.976562 16.671875 -23.203125 15.890625 -23.328125 C 15.117188 -23.460938 14.179688 -23.53125 13.078125 -23.53125 L 8.96875 -23.53125 C 8.601562 -23.53125 8.421875 -23.347656 8.421875 -22.984375 Z M 8.421875 -13.6875 "/></g></g></g><g fill="#f6b116" fill-opacity="1"><g transform="translate(119.842958, 329.285983)"><g><path d="M 2.5 -8.03125 L 2.5 -10.71875 L 12.5 -10.71875 L 12.5 -8.03125 Z M 2.5 -8.03125 "/></g></g></g><g fill="#4ab33b" fill-opacity="1"><g transform="translate(134.81952, 329.285983)"><g><path d="M 17.8125 -5.796875 L 26.21875 -24.921875 L 33.46875 -24.921875 L 33.46875 -23.703125 C 32.78125 -23.679688 32.222656 -23.59375 31.796875 -23.4375 C 31.378906 -23.289062 31.054688 -23.035156 30.828125 -22.671875 C 30.609375 -22.316406 30.457031 -21.828125 30.375 -21.203125 C 30.300781 -20.578125 30.265625 -19.78125 30.265625 -18.8125 L 30.265625 -6.125 C 30.265625 -5.039062 30.304688 -4.1875 30.390625 -3.5625 C 30.484375 -2.9375 30.65625 -2.453125 30.90625 -2.109375 C 31.15625 -1.765625 31.507812 -1.535156 31.96875 -1.421875 C 32.4375 -1.316406 33.046875 -1.253906 33.796875 -1.234375 L 33.796875 0 L 23.3125 0 L 23.3125 -1.234375 C 24.0625 -1.253906 24.664062 -1.320312 25.125 -1.4375 C 25.59375 -1.5625 25.957031 -1.785156 26.21875 -2.109375 C 26.476562 -2.429688 26.648438 -2.890625 26.734375 -3.484375 C 26.828125 -4.078125 26.875 -4.878906 26.875 -5.890625 L 26.875 -20.921875 L 26.546875 -20.921875 L 17.09375 0.328125 L 16.375 0.328125 L 7.09375 -20.921875 L 6.953125 -20.921875 L 6.953125 -6.125 C 6.953125 -5.039062 6.992188 -4.1875 7.078125 -3.5625 C 7.171875 -2.9375 7.34375 -2.453125 7.59375 -2.109375 C 7.84375 -1.765625 8.195312 -1.535156 8.65625 -1.421875 C 9.125 -1.316406 9.734375 -1.253906 10.484375 -1.234375 L 10.484375 0 L 1.453125 0 L 1.453125 -1.234375 C 2.210938 -1.253906 2.820312 -1.320312 3.28125 -1.4375 C 3.75 -1.5625 4.113281 -1.785156 4.375 -2.109375 C 4.632812 -2.429688 4.804688 -2.890625 4.890625 -3.484375 C 4.972656 -4.078125 5.015625 -4.878906 5.015625 -5.890625 L 5.015625 -19.03125 C 5.015625 -19.9375 4.976562 -20.6875 4.90625 -21.28125 C 4.832031 -21.875 4.679688 -22.34375 4.453125 -22.6875 C 4.222656 -23.039062 3.890625 -23.285156 3.453125 -23.421875 C 3.023438 -23.566406 2.46875 -23.660156 1.78125 -23.703125 L 1.78125 -24.921875 L 9.515625 -24.921875 L 17.671875 -5.796875 Z M 17.8125 -5.796875 "/></g></g></g><g fill="#4ab33b" fill-opacity="1"><g transform="translate(170.099673, 329.285983)"><g><path d="M 15.796875 -9.03125 L 7.15625 -9.03125 C 6.789062 -8.144531 6.476562 -7.363281 6.21875 -6.6875 C 5.957031 -6.007812 5.742188 -5.421875 5.578125 -4.921875 C 5.421875 -4.421875 5.304688 -4 5.234375 -3.65625 C 5.171875 -3.3125 5.140625 -3.03125 5.140625 -2.8125 C 5.140625 -2.207031 5.332031 -1.789062 5.71875 -1.5625 C 6.113281 -1.34375 6.765625 -1.234375 7.671875 -1.234375 L 7.671875 0 L -0.1875 0 L -0.1875 -1.234375 C 0.300781 -1.296875 0.722656 -1.378906 1.078125 -1.484375 C 1.441406 -1.597656 1.753906 -1.75 2.015625 -1.9375 C 2.285156 -2.132812 2.523438 -2.390625 2.734375 -2.703125 C 2.941406 -3.015625 3.140625 -3.398438 3.328125 -3.859375 L 11.75 -24.921875 L 13.140625 -24.921875 L 20.5 -6.671875 C 20.988281 -5.460938 21.414062 -4.492188 21.78125 -3.765625 C 22.15625 -3.046875 22.515625 -2.503906 22.859375 -2.140625 C 23.203125 -1.773438 23.570312 -1.535156 23.96875 -1.421875 C 24.375 -1.316406 24.859375 -1.265625 25.421875 -1.265625 L 25.421875 0 L 14.859375 0 L 14.859375 -1.265625 C 16.003906 -1.265625 16.789062 -1.367188 17.21875 -1.578125 C 17.65625 -1.796875 17.875 -2.15625 17.875 -2.65625 C 17.875 -2.875 17.863281 -3.070312 17.84375 -3.25 C 17.820312 -3.4375 17.78125 -3.632812 17.71875 -3.84375 C 17.664062 -4.0625 17.59375 -4.304688 17.5 -4.578125 C 17.40625 -4.847656 17.28125 -5.164062 17.125 -5.53125 Z M 7.796875 -10.65625 L 15.1875 -10.65625 L 11.59375 -20.203125 Z M 7.796875 -10.65625 "/></g></g></g><g fill="#4ab33b" fill-opacity="1"><g transform="translate(195.087079, 329.285983)"><g><path d="M 22.46875 0.328125 L 7.09375 -19.9375 L 6.953125 -19.9375 L 6.953125 -6.125 C 6.953125 -5.039062 6.988281 -4.1875 7.0625 -3.5625 C 7.144531 -2.9375 7.296875 -2.453125 7.515625 -2.109375 C 7.742188 -1.765625 8.066406 -1.535156 8.484375 -1.421875 C 8.910156 -1.316406 9.472656 -1.253906 10.171875 -1.234375 L 10.171875 0 L 1.453125 0 L 1.453125 -1.234375 C 2.210938 -1.253906 2.820312 -1.320312 3.28125 -1.4375 C 3.75 -1.5625 4.113281 -1.785156 4.375 -2.109375 C 4.632812 -2.429688 4.804688 -2.890625 4.890625 -3.484375 C 4.972656 -4.078125 5.015625 -4.878906 5.015625 -5.890625 L 5.015625 -19.03125 C 5.015625 -19.9375 4.976562 -20.6875 4.90625 -21.28125 C 4.832031 -21.875 4.679688 -22.34375 4.453125 -22.6875 C 4.222656 -23.039062 3.890625 -23.285156 3.453125 -23.421875 C 3.023438 -23.566406 2.46875 -23.660156 1.78125 -23.703125 L 1.78125 -24.921875 L 8.1875 -24.921875 L 22.34375 -6.046875 L 22.46875 -6.046875 L 22.46875 -18.8125 C 22.46875 -19.863281 22.425781 -20.707031 22.34375 -21.34375 C 22.269531 -21.988281 22.117188 -22.484375 21.890625 -22.828125 C 21.671875 -23.171875 21.347656 -23.394531 20.921875 -23.5 C 20.503906 -23.613281 19.953125 -23.679688 19.265625 -23.703125 L 19.265625 -24.921875 L 27.96875 -24.921875 L 27.96875 -23.703125 C 27.21875 -23.679688 26.609375 -23.609375 26.140625 -23.484375 C 25.679688 -23.367188 25.320312 -23.148438 25.0625 -22.828125 C 24.800781 -22.503906 24.625 -22.039062 24.53125 -21.4375 C 24.445312 -20.832031 24.40625 -20.03125 24.40625 -19.03125 L 24.40625 0.328125 Z M 22.46875 0.328125 "/></g></g></g><g fill="#4ab33b" fill-opacity="1"><g transform="translate(224.282214, 329.285983)"><g><path d="M 1.234375 0 L 1.234375 -1.234375 C 2.046875 -1.253906 2.707031 -1.3125 3.21875 -1.40625 C 3.726562 -1.5 4.125 -1.679688 4.40625 -1.953125 C 4.6875 -2.222656 4.875 -2.585938 4.96875 -3.046875 C 5.0625 -3.515625 5.109375 -4.140625 5.109375 -4.921875 L 5.109375 -20 C 5.109375 -20.757812 5.070312 -21.367188 5 -21.828125 C 4.925781 -22.296875 4.773438 -22.664062 4.546875 -22.9375 C 4.316406 -23.207031 3.984375 -23.390625 3.546875 -23.484375 C 3.117188 -23.585938 2.5625 -23.660156 1.875 -23.703125 L 1.875 -24.921875 L 13.234375 -24.921875 C 15.179688 -24.921875 16.976562 -24.597656 18.625 -23.953125 C 20.28125 -23.304688 21.707031 -22.410156 22.90625 -21.265625 C 24.101562 -20.117188 25.035156 -18.757812 25.703125 -17.1875 C 26.367188 -15.613281 26.703125 -13.898438 26.703125 -12.046875 C 26.703125 -10.273438 26.390625 -8.648438 25.765625 -7.171875 C 25.140625 -5.691406 24.257812 -4.421875 23.125 -3.359375 C 22 -2.304688 20.644531 -1.484375 19.0625 -0.890625 C 17.488281 -0.296875 15.765625 0 13.890625 0 Z M 9.0625 -23.34375 C 8.695312 -23.34375 8.515625 -23.160156 8.515625 -22.796875 L 8.515625 -5.28125 C 8.515625 -2.820312 10.125 -1.59375 13.34375 -1.59375 C 16.300781 -1.59375 18.566406 -2.46875 20.140625 -4.21875 C 21.710938 -5.976562 22.5 -8.566406 22.5 -11.984375 C 22.5 -13.773438 22.28125 -15.367188 21.84375 -16.765625 C 21.414062 -18.171875 20.796875 -19.359375 19.984375 -20.328125 C 19.179688 -21.296875 18.207031 -22.039062 17.0625 -22.5625 C 15.914062 -23.082031 14.617188 -23.34375 13.171875 -23.34375 Z M 9.0625 -23.34375 "/></g></g></g><g fill="#4ab33b" fill-opacity="1"><g transform="translate(252.894742, 329.285983)"><g><path d="M 15.796875 -9.03125 L 7.15625 -9.03125 C 6.789062 -8.144531 6.476562 -7.363281 6.21875 -6.6875 C 5.957031 -6.007812 5.742188 -5.421875 5.578125 -4.921875 C 5.421875 -4.421875 5.304688 -4 5.234375 -3.65625 C 5.171875 -3.3125 5.140625 -3.03125 5.140625 -2.8125 C 5.140625 -2.207031 5.332031 -1.789062 5.71875 -1.5625 C 6.113281 -1.34375 6.765625 -1.234375 7.671875 -1.234375 L 7.671875 0 L -0.1875 0 L -0.1875 -1.234375 C 0.300781 -1.296875 0.722656 -1.378906 1.078125 -1.484375 C 1.441406 -1.597656 1.753906 -1.75 2.015625 -1.9375 C 2.285156 -2.132812 2.523438 -2.390625 2.734375 -2.703125 C 2.941406 -3.015625 3.140625 -3.398438 3.328125 -3.859375 L 11.75 -24.921875 L 13.140625 -24.921875 L 20.5 -6.671875 C 20.988281 -5.460938 21.414062 -4.492188 21.78125 -3.765625 C 22.15625 -3.046875 22.515625 -2.503906 22.859375 -2.140625 C 23.203125 -1.773438 23.570312 -1.535156 23.96875 -1.421875 C 24.375 -1.316406 24.859375 -1.265625 25.421875 -1.265625 L 25.421875 0 L 14.859375 0 L 14.859375 -1.265625 C 16.003906 -1.265625 16.789062 -1.367188 17.21875 -1.578125 C 17.65625 -1.796875 17.875 -2.15625 17.875 -2.65625 C 17.875 -2.875 17.863281 -3.070312 17.84375 -3.25 C 17.820312 -3.4375 17.78125 -3.632812 17.71875 -3.84375 C 17.664062 -4.0625 17.59375 -4.304688 17.5 -4.578125 C 17.40625 -4.847656 17.28125 -5.164062 17.125 -5.53125 Z M 7.796875 -10.65625 L 15.1875 -10.65625 L 11.59375 -20.203125 Z M 7.796875 -10.65625 "/></g></g></g></svg>