<svg xmlns="http://www.w3.org/2000/svg" xmlns:xlink="http://www.w3.org/1999/xlink" width="500" zoomAndPan="magnify" viewBox="0 0 375 374.999991" height="500" preserveAspectRatio="xMidYMid meet" version="1.0"><defs><g/><clipPath id="a1fae7ed76"><path d="M 37.5 16.625 L 337.5 16.625 L 337.5 316.625 L 37.5 316.625 Z M 37.5 16.625 " clip-rule="nonzero"/></clipPath></defs><rect x="-37.5" width="450" fill="#ffffff" y="-37.499999" height="449.999989" fill-opacity="1"/><rect x="-37.5" width="450" fill="#ffffff" y="-37.499999" height="449.999989" fill-opacity="1"/><rect x="-37.5" width="450" fill="#081f5c" y="-37.499999" height="449.999989" fill-opacity="1"/><path fill="#ffffff" d="M 97.941406 115.734375 L 65.808594 115.734375 C 63.050781 115.734375 60.808594 117.976562 60.808594 120.734375 L 60.808594 152.875 C 60.808594 155.636719 63.050781 157.875 65.808594 157.875 L 97.949219 157.875 C 100.710938 157.875 102.949219 155.636719 102.949219 152.875 L 102.949219 120.734375 C 102.941406 117.964844 100.710938 115.734375 97.941406 115.734375 Z M 92.941406 147.875 L 70.808594 147.875 L 70.808594 125.734375 L 92.949219 125.734375 L 92.949219 147.875 Z M 92.941406 147.875 " fill-opacity="1" fill-rule="nonzero"/><path fill="#ffffff" d="M 148.308594 115.734375 L 116.160156 115.734375 C 113.398438 115.734375 111.160156 117.976562 111.160156 120.734375 L 111.160156 152.875 C 111.160156 155.636719 113.398438 157.875 116.160156 157.875 L 148.300781 157.875 C 151.058594 157.875 153.300781 155.636719 153.300781 152.875 L 153.300781 120.734375 C 153.308594 117.964844 151.070312 115.734375 148.308594 115.734375 Z M 143.308594 147.875 L 121.160156 147.875 L 121.160156 125.734375 L 143.300781 125.734375 L 143.300781 147.875 Z M 143.308594 147.875 " fill-opacity="1" fill-rule="nonzero"/><path fill="#ffffff" d="M 198.660156 115.734375 L 166.519531 115.734375 C 163.761719 115.734375 161.519531 117.976562 161.519531 120.734375 L 161.519531 152.875 C 161.519531 155.636719 163.761719 157.875 166.519531 157.875 L 198.660156 157.875 C 201.421875 157.875 203.660156 155.636719 203.660156 152.875 L 203.660156 120.734375 C 203.660156 117.964844 201.429688 115.734375 198.660156 115.734375 Z M 193.660156 147.875 L 171.519531 147.875 L 171.519531 125.734375 L 193.660156 125.734375 Z M 193.660156 147.875 " fill-opacity="1" fill-rule="nonzero"/><path fill="#ffffff" d="M 216.878906 157.875 L 249.019531 157.875 C 251.78125 157.875 254.019531 155.636719 254.019531 152.875 L 254.019531 120.734375 C 254.019531 117.976562 251.78125 115.734375 249.019531 115.734375 L 216.878906 115.734375 C 214.121094 115.734375 211.878906 117.976562 211.878906 120.734375 L 211.878906 152.875 C 211.878906 155.636719 214.109375 157.875 216.878906 157.875 Z M 221.878906 125.734375 L 244.019531 125.734375 L 244.019531 147.875 L 221.878906 147.875 Z M 221.878906 125.734375 " fill-opacity="1" fill-rule="nonzero"/><path fill="#ffffff" d="M 97.941406 169.304688 L 65.808594 169.304688 C 63.050781 169.304688 60.808594 171.546875 60.808594 174.304688 L 60.808594 206.445312 C 60.808594 209.203125 63.050781 211.445312 65.808594 211.445312 L 97.949219 211.445312 C 100.710938 211.445312 102.949219 209.203125 102.949219 206.445312 L 102.949219 174.304688 C 102.941406 171.546875 100.710938 169.304688 97.941406 169.304688 Z M 92.941406 201.445312 L 70.808594 201.445312 L 70.808594 179.304688 L 92.949219 179.304688 L 92.949219 201.445312 Z M 92.941406 201.445312 " fill-opacity="1" fill-rule="nonzero"/><path fill="#ffffff" d="M 148.308594 169.304688 L 116.160156 169.304688 C 113.398438 169.304688 111.160156 171.546875 111.160156 174.304688 L 111.160156 206.445312 C 111.160156 209.203125 113.398438 211.445312 116.160156 211.445312 L 148.300781 211.445312 C 151.058594 211.445312 153.300781 209.203125 153.300781 206.445312 L 153.300781 174.304688 C 153.308594 171.546875 151.070312 169.304688 148.308594 169.304688 Z M 143.308594 201.445312 L 121.160156 201.445312 L 121.160156 179.304688 L 143.300781 179.304688 L 143.300781 201.445312 Z M 143.308594 201.445312 " fill-opacity="1" fill-rule="nonzero"/><path fill="#ffffff" d="M 198.660156 169.304688 L 166.519531 169.304688 C 163.761719 169.304688 161.519531 171.546875 161.519531 174.304688 L 161.519531 206.445312 C 161.519531 209.203125 163.761719 211.445312 166.519531 211.445312 L 198.660156 211.445312 C 201.421875 211.445312 203.660156 209.203125 203.660156 206.445312 L 203.660156 174.304688 C 203.660156 171.546875 201.429688 169.304688 198.660156 169.304688 Z M 193.660156 201.445312 L 171.519531 201.445312 L 171.519531 179.304688 L 193.660156 179.304688 Z M 193.660156 201.445312 " fill-opacity="1" fill-rule="nonzero"/><g clip-path="url(#a1fae7ed76)"><path fill="#ffffff" d="M 277.300781 187.273438 L 277.300781 99.40625 C 277.300781 99.375 277.320312 99.34375 277.320312 99.304688 C 277.320312 99.265625 277.300781 99.246094 277.300781 99.203125 L 277.300781 61.726562 C 277.300781 51.195312 268.730469 42.625 258.199219 42.625 L 247.410156 42.625 L 247.410156 33.414062 C 247.410156 24.15625 239.878906 16.625 230.621094 16.625 C 221.359375 16.625 213.828125 24.15625 213.828125 33.414062 L 213.828125 42.625 L 100.980469 42.625 L 100.980469 33.414062 C 100.980469 24.15625 93.449219 16.625 84.191406 16.625 C 74.941406 16.625 67.410156 24.15625 67.410156 33.414062 L 67.410156 42.625 L 56.601562 42.625 C 46.070312 42.625 37.5 51.195312 37.5 61.726562 L 37.5 269.726562 C 37.5 280.253906 46.070312 288.824219 56.601562 288.824219 L 220.179688 288.824219 C 232.289062 305.984375 251.738281 316.226562 272.898438 316.226562 C 308.519531 316.226562 337.5 287.246094 337.5 251.625 C 337.5 217.683594 311.171875 189.835938 277.300781 187.273438 Z M 238.359375 197.066406 C 236.261719 198.394531 234.199219 199.835938 232.210938 201.425781 L 221.898438 201.425781 L 221.898438 179.324219 L 244 179.324219 L 244 193.84375 C 242.511719 194.59375 241.058594 195.476562 239.609375 196.34375 C 239.199219 196.59375 238.769531 196.804688 238.359375 197.066406 Z M 223.839844 33.414062 C 223.839844 29.675781 226.878906 26.625 230.621094 26.625 C 234.359375 26.625 237.410156 29.675781 237.410156 33.414062 L 237.410156 42.625 L 223.839844 42.625 Z M 223.839844 52.625 L 237.410156 52.625 L 237.410156 60.734375 C 237.410156 64.476562 234.359375 67.523438 230.621094 67.523438 C 226.878906 67.523438 223.828125 64.476562 223.828125 60.734375 L 223.828125 52.625 Z M 77.410156 33.414062 C 77.410156 29.675781 80.449219 26.625 84.191406 26.625 C 87.929688 26.625 90.980469 29.675781 90.980469 33.414062 L 90.980469 42.625 L 77.410156 42.625 Z M 77.410156 52.625 L 90.980469 52.625 L 90.980469 60.734375 C 90.980469 64.476562 87.929688 67.523438 84.191406 67.523438 C 80.449219 67.523438 77.410156 64.476562 77.410156 60.734375 Z M 56.601562 52.625 L 67.410156 52.625 L 67.410156 60.734375 C 67.410156 69.996094 74.941406 77.523438 84.191406 77.523438 C 93.449219 77.523438 100.980469 69.996094 100.980469 60.734375 L 100.980469 52.625 L 213.839844 52.625 L 213.839844 60.734375 C 213.839844 69.996094 221.371094 77.523438 230.628906 77.523438 C 239.890625 77.523438 247.421875 69.996094 247.421875 60.734375 L 247.421875 52.625 L 258.210938 52.625 C 263.230469 52.625 267.308594 56.703125 267.308594 61.726562 L 267.308594 94.304688 L 47.5 94.304688 L 47.5 61.726562 C 47.5 56.703125 51.578125 52.625 56.601562 52.625 Z M 56.601562 278.824219 C 51.578125 278.824219 47.5 274.746094 47.5 269.726562 L 47.5 104.304688 L 267.300781 104.304688 L 267.300781 187.265625 C 267.121094 187.285156 266.941406 187.335938 266.761719 187.355469 C 263.710938 187.644531 260.699219 188.164062 257.730469 188.886719 C 257.121094 189.035156 256.53125 189.203125 255.929688 189.363281 C 255.289062 189.546875 254.640625 189.683594 254 189.886719 L 254 174.324219 C 254 171.566406 251.761719 169.324219 249 169.324219 L 216.898438 169.324219 C 214.140625 169.324219 211.898438 171.566406 211.898438 174.324219 L 211.898438 206.425781 C 211.898438 209.183594 214.140625 211.425781 216.898438 211.425781 L 222.351562 211.425781 C 213.289062 222.773438 208.199219 236.875 208.199219 251.625 C 208.199219 254.425781 208.441406 257.195312 208.800781 259.945312 C 208.910156 260.773438 209.070312 261.585938 209.210938 262.414062 C 209.550781 264.394531 209.96875 266.355469 210.5 268.292969 C 210.730469 269.136719 210.941406 269.964844 211.199219 270.792969 C 211.910156 273.074219 212.75 275.316406 213.710938 277.503906 C 213.871094 277.855469 213.980469 278.226562 214.140625 278.574219 C 214.179688 278.65625 214.199219 278.734375 214.238281 278.816406 L 56.601562 278.816406 Z M 272.898438 306.226562 C 254.199219 306.226562 237 296.84375 226.898438 281.113281 C 221.210938 272.292969 218.199219 262.09375 218.199219 251.625 C 218.199219 235.703125 225.148438 220.613281 237.21875 210.246094 C 241.5 206.636719 246.140625 203.726562 250.988281 201.605469 C 250.988281 201.605469 250.988281 201.605469 251 201.59375 C 257.761719 198.644531 264.949219 197.105469 272.898438 197.015625 C 303.011719 197.015625 327.5 221.503906 327.5 251.613281 C 327.5 281.726562 303.011719 306.226562 272.898438 306.226562 Z M 272.898438 306.226562 " fill-opacity="1" fill-rule="nonzero"/></g><path fill="#ffffff" d="M 97.941406 222.875 L 65.808594 222.875 C 63.050781 222.875 60.808594 225.113281 60.808594 227.875 L 60.808594 260.015625 C 60.808594 262.773438 63.050781 265.015625 65.808594 265.015625 L 97.949219 265.015625 C 100.710938 265.015625 102.949219 262.773438 102.949219 260.015625 L 102.949219 227.875 C 102.941406 225.113281 100.710938 222.875 97.941406 222.875 Z M 92.941406 255.015625 L 70.808594 255.015625 L 70.808594 232.875 L 92.949219 232.875 L 92.949219 255.015625 Z M 92.941406 255.015625 " fill-opacity="1" fill-rule="nonzero"/><path fill="#ffffff" d="M 148.308594 222.875 L 116.160156 222.875 C 113.398438 222.875 111.160156 225.113281 111.160156 227.875 L 111.160156 260.015625 C 111.160156 262.773438 113.398438 265.015625 116.160156 265.015625 L 148.300781 265.015625 C 151.058594 265.015625 153.300781 262.773438 153.300781 260.015625 L 153.300781 227.875 C 153.308594 225.113281 151.070312 222.875 148.308594 222.875 Z M 143.308594 255.015625 L 121.160156 255.015625 L 121.160156 232.875 L 143.300781 232.875 L 143.300781 255.015625 Z M 143.308594 255.015625 " fill-opacity="1" fill-rule="nonzero"/><path fill="#ffffff" d="M 198.660156 222.875 L 166.519531 222.875 C 163.761719 222.875 161.519531 225.113281 161.519531 227.875 L 161.519531 260.015625 C 161.519531 262.773438 163.761719 265.015625 166.519531 265.015625 L 198.660156 265.015625 C 201.421875 265.015625 203.660156 262.773438 203.660156 260.015625 L 203.660156 227.875 C 203.660156 225.113281 201.429688 222.875 198.660156 222.875 Z M 193.660156 255.015625 L 171.519531 255.015625 L 171.519531 232.875 L 193.660156 232.875 Z M 193.660156 255.015625 " fill-opacity="1" fill-rule="nonzero"/><path fill="#ffffff" d="M 272.300781 217.066406 C 275.058594 217.066406 277.300781 214.824219 277.300781 212.066406 L 277.300781 206.425781 C 277.300781 203.664062 275.058594 201.425781 272.300781 201.425781 C 269.539062 201.425781 267.300781 203.664062 267.300781 206.425781 L 267.300781 212.066406 C 267.300781 214.835938 269.539062 217.066406 272.300781 217.066406 Z M 272.300781 217.066406 " fill-opacity="1" fill-rule="nonzero"/><path fill="#ffffff" d="M 272.300781 287.40625 C 269.539062 287.40625 267.300781 289.644531 267.300781 292.40625 L 267.300781 298.054688 C 267.300781 300.816406 269.539062 303.054688 272.300781 303.054688 C 275.058594 303.054688 277.300781 300.816406 277.300781 298.054688 L 277.300781 292.40625 C 277.300781 289.644531 275.058594 287.40625 272.300781 287.40625 Z M 272.300781 287.40625 " fill-opacity="1" fill-rule="nonzero"/><path fill="#ffffff" d="M 318.121094 247.246094 L 312.46875 247.246094 C 309.710938 247.246094 307.46875 249.484375 307.46875 252.246094 C 307.46875 255.003906 309.710938 257.246094 312.46875 257.246094 L 318.121094 257.246094 C 320.878906 257.246094 323.121094 255.003906 323.121094 252.246094 C 323.121094 249.484375 320.878906 247.246094 318.121094 247.246094 Z M 318.121094 247.246094 " fill-opacity="1" fill-rule="nonzero"/><path fill="#ffffff" d="M 232.128906 247.246094 L 226.480469 247.246094 C 223.71875 247.246094 221.480469 249.484375 221.480469 252.246094 C 221.480469 255.003906 223.71875 257.246094 226.480469 257.246094 L 232.128906 257.246094 C 234.890625 257.246094 237.128906 255.003906 237.128906 252.246094 C 237.128906 249.484375 234.898438 247.246094 232.128906 247.246094 Z M 232.128906 247.246094 " fill-opacity="1" fill-rule="nonzero"/><path fill="#ffffff" d="M 277.300781 249.535156 L 277.300781 229.214844 C 277.300781 226.453125 275.058594 224.214844 272.300781 224.214844 C 269.539062 224.214844 267.300781 226.453125 267.300781 229.214844 L 267.300781 251.625 C 267.300781 252.964844 267.839844 254.246094 268.789062 255.183594 L 282.738281 268.933594 C 283.71875 269.894531 284.980469 270.375 286.25 270.375 C 287.539062 270.375 288.828125 269.875 289.808594 268.886719 C 291.75 266.914062 291.730469 263.753906 289.761719 261.816406 Z M 277.300781 249.535156 " fill-opacity="1" fill-rule="nonzero"/><g fill="#f4fdfe" fill-opacity="1"><g transform="translate(110.812497, 348.374977)"><g><path d="M 17.78125 0.203125 C 17.132812 0.160156 16.359375 0.113281 15.453125 0.0625 C 14.554688 0.0195312 13.742188 0 13.015625 0 L 1.265625 0 L 1.15625 -1.703125 L 3.34375 -2.25 C 3.394531 -2.363281 3.4375 -2.660156 3.46875 -3.140625 C 3.5 -3.617188 3.523438 -4.238281 3.546875 -5 C 3.578125 -5.769531 3.59375 -6.609375 3.59375 -7.515625 L 3.59375 -12.515625 C 3.59375 -13.472656 3.578125 -14.332031 3.546875 -15.09375 C 3.523438 -15.851562 3.5 -16.472656 3.46875 -16.953125 C 3.4375 -17.429688 3.394531 -17.71875 3.34375 -17.8125 L 1.15625 -18.359375 L 1.265625 -20.0625 L 11.796875 -20.0625 C 12.242188 -20.0625 12.789062 -20.066406 13.4375 -20.078125 C 14.09375 -20.085938 14.734375 -20.109375 15.359375 -20.140625 C 15.984375 -20.179688 16.515625 -20.210938 16.953125 -20.234375 L 17.875 -15.171875 L 15.890625 -14.90625 L 14.625 -17.90625 C 14.332031 -17.976562 14.066406 -18.023438 13.828125 -18.046875 C 13.585938 -18.066406 13.332031 -18.078125 13.0625 -18.078125 L 10.453125 -18.078125 C 10.023438 -18.078125 9.609375 -18.070312 9.203125 -18.0625 C 8.804688 -18.050781 8.484375 -18.023438 8.234375 -17.984375 C 8.234375 -17.796875 8.226562 -17.519531 8.21875 -17.15625 C 8.207031 -16.789062 8.195312 -16.320312 8.1875 -15.75 C 8.175781 -15.1875 8.171875 -14.515625 8.171875 -13.734375 L 8.171875 -6.5625 C 8.171875 -5.832031 8.175781 -5.179688 8.1875 -4.609375 C 8.195312 -4.046875 8.207031 -3.570312 8.21875 -3.1875 C 8.226562 -2.8125 8.234375 -2.523438 8.234375 -2.328125 C 8.648438 -2.253906 9.082031 -2.207031 9.53125 -2.1875 C 9.988281 -2.164062 10.5625 -2.15625 11.25 -2.15625 L 13.0625 -2.15625 C 13.65625 -2.15625 14.09375 -2.160156 14.375 -2.171875 C 14.65625 -2.179688 14.867188 -2.195312 15.015625 -2.21875 C 15.171875 -2.238281 15.328125 -2.265625 15.484375 -2.296875 L 17.359375 -5.703125 L 19.3125 -5.328125 Z M 13.4375 -6.84375 L 13.09375 -9.125 C 12.9375 -9.144531 12.6875 -9.160156 12.34375 -9.171875 C 12 -9.179688 11.597656 -9.1875 11.140625 -9.1875 L 9.328125 -9.1875 C 8.941406 -9.1875 8.570312 -9.175781 8.21875 -9.15625 C 7.863281 -9.132812 7.597656 -9.113281 7.421875 -9.09375 L 7.421875 -11.515625 C 7.597656 -11.492188 7.863281 -11.472656 8.21875 -11.453125 C 8.570312 -11.429688 8.941406 -11.421875 9.328125 -11.421875 L 11.140625 -11.421875 C 11.597656 -11.421875 12 -11.425781 12.34375 -11.4375 C 12.6875 -11.445312 12.9375 -11.453125 13.09375 -11.453125 L 13.4375 -13.734375 L 15.3125 -13.734375 L 15.3125 -6.84375 Z M 13.4375 -6.84375 "/></g></g></g><g fill="#f4fdfe" fill-opacity="1"><g transform="translate(130.700634, 348.374977)"><g><path d="M 2.5625 -5.328125 L 2.5625 -8.75 L 10.828125 -9.953125 L 10.828125 -6.453125 Z M 2.5625 -5.328125 "/></g></g></g><g fill="#f4fdfe" fill-opacity="1"><g transform="translate(144.09608, 348.374977)"><g><path d="M 1.640625 -20.0625 L 8.8125 -20.0625 L 15.96875 -4.921875 L 14.96875 -4.921875 L 21.390625 -20.0625 L 28.609375 -20.0625 L 28.71875 -18.359375 L 26.53125 -17.84375 C 26.5 -17.519531 26.492188 -17 26.515625 -16.28125 C 26.546875 -15.5625 26.570312 -14.644531 26.59375 -13.53125 L 26.796875 -7.546875 C 26.835938 -6.597656 26.878906 -5.742188 26.921875 -4.984375 C 26.972656 -4.234375 27.015625 -3.617188 27.046875 -3.140625 C 27.085938 -2.660156 27.117188 -2.363281 27.140625 -2.25 L 29.328125 -1.703125 L 29.21875 0 L 19.921875 0 L 19.828125 -1.703125 L 22.015625 -2.25 C 22.035156 -2.363281 22.050781 -2.632812 22.0625 -3.0625 C 22.070312 -3.5 22.078125 -4.09375 22.078125 -4.84375 C 22.078125 -5.601562 22.066406 -6.492188 22.046875 -7.515625 L 21.9375 -19.078125 L 23.515625 -19.078125 L 15.375 0.109375 L 13.234375 0.109375 L 4.109375 -19.078125 L 6.25 -19.078125 L 6.296875 -7.3125 C 6.296875 -5.5625 6.304688 -4.316406 6.328125 -3.578125 C 6.347656 -2.835938 6.367188 -2.394531 6.390625 -2.25 L 8.75 -1.703125 L 8.640625 0 L 1.15625 0 L 1.0625 -1.703125 L 3.453125 -2.25 C 3.472656 -2.414062 3.488281 -2.738281 3.5 -3.21875 C 3.507812 -3.695312 3.523438 -4.273438 3.546875 -4.953125 C 3.578125 -5.640625 3.59375 -6.347656 3.59375 -7.078125 L 3.6875 -13.46875 C 3.707031 -14.675781 3.710938 -15.625 3.703125 -16.3125 C 3.691406 -17.007812 3.6875 -17.507812 3.6875 -17.8125 L 1.53125 -18.359375 Z M 1.640625 -20.0625 "/></g></g></g><g fill="#f4fdfe" fill-opacity="1"><g transform="translate(174.543382, 348.374977)"><g><path d="M -0.03125 0 L -0.140625 -1.703125 L 1.640625 -2.25 L 8.578125 -19.078125 L 11.453125 -20.671875 L 19.3125 -2.25 L 21.09375 -1.703125 L 20.984375 0 L 11.828125 0 L 11.71875 -1.703125 L 13.90625 -2.25 L 12.0625 -6.671875 L 11.6875 -7.828125 L 8.265625 -15.890625 L 9.265625 -15.625 L 6.421875 -7.9375 L 6.125 -6.90625 L 4.484375 -2.25 L 6.671875 -1.703125 L 6.5625 0 Z M 5.296875 -5.8125 L 5.296875 -8.140625 C 5.753906 -8.109375 6.265625 -8.078125 6.828125 -8.046875 C 7.398438 -8.015625 8.164062 -8 9.125 -8 C 10.039062 -8 10.800781 -8.015625 11.40625 -8.046875 C 12.007812 -8.078125 12.523438 -8.109375 12.953125 -8.140625 L 12.953125 -5.84375 C 12.523438 -5.84375 12 -5.851562 11.375 -5.875 C 10.757812 -5.894531 10.007812 -5.90625 9.125 -5.90625 C 8.1875 -5.90625 7.421875 -5.894531 6.828125 -5.875 C 6.242188 -5.851562 5.734375 -5.832031 5.296875 -5.8125 Z M 5.296875 -5.8125 "/></g></g></g><g fill="#f4fdfe" fill-opacity="1"><g transform="translate(195.354163, 348.374977)"><g><path d="M 17.734375 -6.328125 L 17.734375 -11.546875 C 17.734375 -12.671875 17.726562 -13.679688 17.71875 -14.578125 C 17.707031 -15.472656 17.6875 -16.207031 17.65625 -16.78125 C 17.625 -17.351562 17.582031 -17.695312 17.53125 -17.8125 L 15.140625 -18.359375 L 15.25 -20.0625 L 22.53125 -20.0625 L 22.625 -18.359375 L 20.4375 -17.8125 C 20.414062 -17.695312 20.382812 -17.359375 20.34375 -16.796875 C 20.3125 -16.242188 20.285156 -15.507812 20.265625 -14.59375 C 20.242188 -13.6875 20.234375 -12.671875 20.234375 -11.546875 L 20.234375 -5.0625 C 20.234375 -3.988281 20.234375 -3.046875 20.234375 -2.234375 C 20.234375 -1.429688 20.234375 -0.628906 20.234375 0.171875 L 18.15625 0.171875 L 4.40625 -15.71875 L 6.21875 -15.71875 L 6.21875 -8.921875 C 6.21875 -7.691406 6.226562 -6.601562 6.25 -5.65625 C 6.28125 -4.707031 6.3125 -3.941406 6.34375 -3.359375 C 6.375 -2.785156 6.425781 -2.414062 6.5 -2.25 L 8.859375 -1.703125 L 8.75 0 L 1.375 0 L 1.265625 -1.703125 L 3.421875 -2.25 C 3.460938 -2.414062 3.5 -2.800781 3.53125 -3.40625 C 3.570312 -4.007812 3.601562 -4.796875 3.625 -5.765625 C 3.644531 -6.734375 3.65625 -7.785156 3.65625 -8.921875 L 3.65625 -13.46875 C 3.65625 -14.082031 3.640625 -14.695312 3.609375 -15.3125 C 3.578125 -15.925781 3.539062 -16.460938 3.5 -16.921875 C 3.46875 -17.378906 3.441406 -17.675781 3.421875 -17.8125 L 1.265625 -18.359375 L 1.375 -20.0625 L 6.765625 -20.0625 L 19.140625 -6.328125 Z M 17.734375 -6.328125 "/></g></g></g><g fill="#f4fdfe" fill-opacity="1"><g transform="translate(219.206258, 348.374977)"><g><path d="M 1.296875 -20.0625 L 10.734375 -20.0625 C 14.421875 -20.0625 17.300781 -19.203125 19.375 -17.484375 C 21.445312 -15.765625 22.484375 -13.363281 22.484375 -10.28125 C 22.484375 -8.300781 21.992188 -6.53125 21.015625 -4.96875 C 20.035156 -3.40625 18.6875 -2.1875 16.96875 -1.3125 C 15.25 -0.4375 13.285156 0 11.078125 0 L 1.296875 0 L 1.203125 -1.703125 L 3.390625 -2.25 C 3.453125 -2.414062 3.503906 -2.992188 3.546875 -3.984375 C 3.597656 -4.972656 3.625 -6.148438 3.625 -7.515625 L 3.625 -12.515625 C 3.625 -13.941406 3.597656 -15.148438 3.546875 -16.140625 C 3.503906 -17.140625 3.453125 -17.695312 3.390625 -17.8125 L 1.203125 -18.359375 Z M 8.3125 -17.78125 C 8.3125 -17.632812 8.300781 -17.335938 8.28125 -16.890625 C 8.269531 -16.453125 8.257812 -15.875 8.25 -15.15625 C 8.238281 -14.4375 8.234375 -13.554688 8.234375 -12.515625 L 8.234375 -7.515625 C 8.234375 -6.921875 8.238281 -6.300781 8.25 -5.65625 C 8.257812 -5.007812 8.28125 -4.410156 8.3125 -3.859375 C 8.351562 -3.316406 8.382812 -2.882812 8.40625 -2.5625 C 8.925781 -2.46875 9.441406 -2.390625 9.953125 -2.328125 C 10.472656 -2.273438 10.960938 -2.25 11.421875 -2.25 C 13.359375 -2.25 14.820312 -2.804688 15.8125 -3.921875 C 16.800781 -5.046875 17.296875 -6.816406 17.296875 -9.234375 C 17.296875 -10.828125 17.113281 -12.179688 16.75 -13.296875 C 16.382812 -14.410156 15.878906 -15.304688 15.234375 -15.984375 C 14.597656 -16.671875 13.867188 -17.175781 13.046875 -17.5 C 12.234375 -17.820312 11.359375 -17.984375 10.421875 -17.984375 C 10.109375 -17.984375 9.769531 -17.960938 9.40625 -17.921875 C 9.039062 -17.890625 8.675781 -17.84375 8.3125 -17.78125 Z M 8.3125 -17.78125 "/></g></g></g><g fill="#f4fdfe" fill-opacity="1"><g transform="translate(243.365902, 348.374977)"><g><path d="M -0.03125 0 L -0.140625 -1.703125 L 1.640625 -2.25 L 8.578125 -19.078125 L 11.453125 -20.671875 L 19.3125 -2.25 L 21.09375 -1.703125 L 20.984375 0 L 11.828125 0 L 11.71875 -1.703125 L 13.90625 -2.25 L 12.0625 -6.671875 L 11.6875 -7.828125 L 8.265625 -15.890625 L 9.265625 -15.625 L 6.421875 -7.9375 L 6.125 -6.90625 L 4.484375 -2.25 L 6.671875 -1.703125 L 6.5625 0 Z M 5.296875 -5.8125 L 5.296875 -8.140625 C 5.753906 -8.109375 6.265625 -8.078125 6.828125 -8.046875 C 7.398438 -8.015625 8.164062 -8 9.125 -8 C 10.039062 -8 10.800781 -8.015625 11.40625 -8.046875 C 12.007812 -8.078125 12.523438 -8.109375 12.953125 -8.140625 L 12.953125 -5.84375 C 12.523438 -5.84375 12 -5.851562 11.375 -5.875 C 10.757812 -5.894531 10.007812 -5.90625 9.125 -5.90625 C 8.1875 -5.90625 7.421875 -5.894531 6.828125 -5.875 C 6.242188 -5.851562 5.734375 -5.832031 5.296875 -5.8125 Z M 5.296875 -5.8125 "/></g></g></g></svg>